<mxfile host="app.diagrams.net" agent="Mozilla/5.0 (Windows NT 10.0; Win64; x64) AppleWebKit/537.36 (KHTML, like Gecko) Chrome/132.0.0.0 Safari/537.36" version="26.0.11">
  <diagram name="PÃ¡gina-1" id="3Yuu5FA780mURWCu2R7l">
    <mxGraphModel dx="1877" dy="1734" grid="1" gridSize="10" guides="1" tooltips="1" connect="1" arrows="1" fold="1" page="1" pageScale="1" pageWidth="827" pageHeight="1169" math="0" shadow="0">
      <root>
        <mxCell id="0" />
        <mxCell id="1" parent="0" />
        <mxCell id="O_qhy4GaRmsFSzOgZT72-17" value="" style="edgeStyle=orthogonalEdgeStyle;shape=connector;rounded=0;orthogonalLoop=1;jettySize=auto;html=1;strokeColor=default;align=center;verticalAlign=middle;fontFamily=Helvetica;fontSize=11;fontColor=default;labelBackgroundColor=default;endArrow=none;endFill=0;" parent="1" target="ej8KAwrQizuk1CulCsTu-1" edge="1">
          <mxGeometry relative="1" as="geometry">
            <mxPoint x="975" y="480" as="sourcePoint" />
          </mxGeometry>
        </mxCell>
        <mxCell id="pjg-q-o6dQqwzu6WAslv-16" value="Passagem" style="whiteSpace=wrap;html=1;align=center;" parent="1" vertex="1">
          <mxGeometry x="875" y="460" width="100" height="40" as="geometry" />
        </mxCell>
        <mxCell id="pjg-q-o6dQqwzu6WAslv-32" value="" style="edgeStyle=orthogonalEdgeStyle;shape=connector;rounded=0;orthogonalLoop=1;jettySize=auto;html=1;strokeColor=default;align=center;verticalAlign=middle;fontFamily=Helvetica;fontSize=11;fontColor=default;labelBackgroundColor=default;endArrow=none;endFill=0;" parent="1" source="VFVIMdCbOXR8x4Mu5Sau-1" target="VFVIMdCbOXR8x4Mu5Sau-22" edge="1">
          <mxGeometry relative="1" as="geometry" />
        </mxCell>
        <mxCell id="kDe-1MHkGWwvt0b6MnKs-29" value="(1)" style="edgeLabel;html=1;align=center;verticalAlign=middle;resizable=0;points=[];fontFamily=Helvetica;fontSize=11;fontColor=default;labelBackgroundColor=default;" parent="pjg-q-o6dQqwzu6WAslv-32" vertex="1" connectable="0">
          <mxGeometry x="0.0001" y="1" relative="1" as="geometry">
            <mxPoint y="1" as="offset" />
          </mxGeometry>
        </mxCell>
        <mxCell id="kDe-1MHkGWwvt0b6MnKs-91" value="" style="edgeStyle=orthogonalEdgeStyle;shape=connector;rounded=0;orthogonalLoop=1;jettySize=auto;html=1;strokeColor=default;align=center;verticalAlign=middle;fontFamily=Helvetica;fontSize=11;fontColor=default;labelBackgroundColor=default;endArrow=none;endFill=0;" parent="1" source="VFVIMdCbOXR8x4Mu5Sau-1" target="VFVIMdCbOXR8x4Mu5Sau-16" edge="1">
          <mxGeometry relative="1" as="geometry" />
        </mxCell>
        <mxCell id="VFVIMdCbOXR8x4Mu5Sau-1" value="Aeroporto" style="whiteSpace=wrap;html=1;align=center;" parent="1" vertex="1">
          <mxGeometry x="-160" y="140" width="100" height="40" as="geometry" />
        </mxCell>
        <mxCell id="kDe-1MHkGWwvt0b6MnKs-129" style="edgeStyle=orthogonalEdgeStyle;shape=connector;rounded=0;orthogonalLoop=1;jettySize=auto;html=1;exitX=0;exitY=0.5;exitDx=0;exitDy=0;strokeColor=default;align=center;verticalAlign=middle;fontFamily=Helvetica;fontSize=11;fontColor=default;labelBackgroundColor=default;endArrow=none;endFill=0;" parent="1" source="VFVIMdCbOXR8x4Mu5Sau-3" edge="1">
          <mxGeometry relative="1" as="geometry">
            <mxPoint x="790" y="150.1428571428571" as="targetPoint" />
          </mxGeometry>
        </mxCell>
        <mxCell id="VFVIMdCbOXR8x4Mu5Sau-3" value="hrr_chegada" style="ellipse;whiteSpace=wrap;html=1;align=center;fontSize=11;" parent="1" vertex="1">
          <mxGeometry x="810" y="135" width="80" height="30" as="geometry" />
        </mxCell>
        <mxCell id="pjg-q-o6dQqwzu6WAslv-59" style="edgeStyle=orthogonalEdgeStyle;shape=connector;rounded=0;orthogonalLoop=1;jettySize=auto;html=1;entryX=0.5;entryY=1;entryDx=0;entryDy=0;strokeColor=default;align=center;verticalAlign=middle;fontFamily=Helvetica;fontSize=11;fontColor=default;labelBackgroundColor=default;endArrow=none;endFill=0;exitX=0.25;exitY=0;exitDx=0;exitDy=0;" parent="1" source="VFVIMdCbOXR8x4Mu5Sau-5" target="VFVIMdCbOXR8x4Mu5Sau-106" edge="1">
          <mxGeometry relative="1" as="geometry">
            <Array as="points">
              <mxPoint x="655" y="170" />
              <mxPoint x="610" y="170" />
              <mxPoint x="610" y="140" />
            </Array>
            <mxPoint x="656" y="180" as="sourcePoint" />
            <mxPoint x="620" y="143" as="targetPoint" />
          </mxGeometry>
        </mxCell>
        <mxCell id="kDe-1MHkGWwvt0b6MnKs-35" value="(N)" style="edgeLabel;html=1;align=center;verticalAlign=middle;resizable=0;points=[];fontFamily=Helvetica;fontSize=11;fontColor=default;labelBackgroundColor=default;" parent="pjg-q-o6dQqwzu6WAslv-59" vertex="1" connectable="0">
          <mxGeometry x="-0.0061" y="2" relative="1" as="geometry">
            <mxPoint x="5" y="-2" as="offset" />
          </mxGeometry>
        </mxCell>
        <mxCell id="pjg-q-o6dQqwzu6WAslv-67" style="edgeStyle=orthogonalEdgeStyle;shape=connector;rounded=0;orthogonalLoop=1;jettySize=auto;html=1;exitX=0.75;exitY=0;exitDx=0;exitDy=0;entryX=0.5;entryY=1;entryDx=0;entryDy=0;strokeColor=default;align=center;verticalAlign=middle;fontFamily=Helvetica;fontSize=11;fontColor=default;labelBackgroundColor=default;endArrow=none;endFill=0;" parent="1" source="VFVIMdCbOXR8x4Mu5Sau-5" target="pjg-q-o6dQqwzu6WAslv-66" edge="1">
          <mxGeometry relative="1" as="geometry" />
        </mxCell>
        <mxCell id="kDe-1MHkGWwvt0b6MnKs-51" value="(N)" style="edgeLabel;html=1;align=center;verticalAlign=middle;resizable=0;points=[];fontFamily=Helvetica;fontSize=11;fontColor=default;labelBackgroundColor=default;" parent="pjg-q-o6dQqwzu6WAslv-67" vertex="1" connectable="0">
          <mxGeometry x="0.0073" relative="1" as="geometry">
            <mxPoint as="offset" />
          </mxGeometry>
        </mxCell>
        <mxCell id="kDe-1MHkGWwvt0b6MnKs-9" value="" style="edgeStyle=orthogonalEdgeStyle;shape=connector;rounded=0;orthogonalLoop=1;jettySize=auto;html=1;strokeColor=default;align=center;verticalAlign=middle;fontFamily=Helvetica;fontSize=11;fontColor=default;labelBackgroundColor=default;endArrow=none;endFill=0;" parent="1" source="VFVIMdCbOXR8x4Mu5Sau-5" target="VFVIMdCbOXR8x4Mu5Sau-44" edge="1">
          <mxGeometry relative="1" as="geometry">
            <Array as="points">
              <mxPoint x="710" y="270" />
              <mxPoint x="770" y="270" />
              <mxPoint x="770" y="350" />
            </Array>
          </mxGeometry>
        </mxCell>
        <mxCell id="kDe-1MHkGWwvt0b6MnKs-48" value="(1)" style="edgeLabel;html=1;align=center;verticalAlign=middle;resizable=0;points=[];fontFamily=Helvetica;fontSize=11;fontColor=default;labelBackgroundColor=default;" parent="kDe-1MHkGWwvt0b6MnKs-9" vertex="1" connectable="0">
          <mxGeometry x="-0.0108" relative="1" as="geometry">
            <mxPoint x="-25" y="-54" as="offset" />
          </mxGeometry>
        </mxCell>
        <mxCell id="VFVIMdCbOXR8x4Mu5Sau-5" value="Voo" style="whiteSpace=wrap;html=1;align=center;" parent="1" vertex="1">
          <mxGeometry x="630" y="200" width="100" height="40" as="geometry" />
        </mxCell>
        <mxCell id="kDe-1MHkGWwvt0b6MnKs-97" value="" style="edgeStyle=orthogonalEdgeStyle;shape=connector;rounded=0;orthogonalLoop=1;jettySize=auto;html=1;strokeColor=default;align=center;verticalAlign=middle;fontFamily=Helvetica;fontSize=11;fontColor=default;labelBackgroundColor=default;endArrow=none;endFill=0;" parent="1" source="VFVIMdCbOXR8x4Mu5Sau-6" target="VFVIMdCbOXR8x4Mu5Sau-30" edge="1">
          <mxGeometry relative="1" as="geometry" />
        </mxCell>
        <mxCell id="VFVIMdCbOXR8x4Mu5Sau-6" value="Companhia" style="whiteSpace=wrap;html=1;align=center;" parent="1" vertex="1">
          <mxGeometry x="-160" y="260" width="100" height="40" as="geometry" />
        </mxCell>
        <mxCell id="kDe-1MHkGWwvt0b6MnKs-6" value="" style="edgeStyle=orthogonalEdgeStyle;shape=connector;rounded=0;orthogonalLoop=1;jettySize=auto;html=1;strokeColor=default;align=center;verticalAlign=middle;fontFamily=Helvetica;fontSize=11;fontColor=default;labelBackgroundColor=default;endArrow=none;endFill=0;" parent="1" source="VFVIMdCbOXR8x4Mu5Sau-7" target="pjg-q-o6dQqwzu6WAslv-17" edge="1">
          <mxGeometry relative="1" as="geometry" />
        </mxCell>
        <mxCell id="kDe-1MHkGWwvt0b6MnKs-46" value="(1)" style="edgeLabel;html=1;align=center;verticalAlign=middle;resizable=0;points=[];fontFamily=Helvetica;fontSize=11;fontColor=default;labelBackgroundColor=default;" parent="kDe-1MHkGWwvt0b6MnKs-6" vertex="1" connectable="0">
          <mxGeometry x="0.0051" relative="1" as="geometry">
            <mxPoint as="offset" />
          </mxGeometry>
        </mxCell>
        <mxCell id="kDe-1MHkGWwvt0b6MnKs-24" value="" style="edgeStyle=orthogonalEdgeStyle;shape=connector;rounded=0;orthogonalLoop=1;jettySize=auto;html=1;strokeColor=default;align=center;verticalAlign=middle;fontFamily=Helvetica;fontSize=11;fontColor=default;labelBackgroundColor=default;endArrow=none;endFill=0;" parent="1" source="VFVIMdCbOXR8x4Mu5Sau-7" target="kDe-1MHkGWwvt0b6MnKs-22" edge="1">
          <mxGeometry relative="1" as="geometry">
            <Array as="points">
              <mxPoint x="480" y="660" />
              <mxPoint x="480" y="660" />
            </Array>
          </mxGeometry>
        </mxCell>
        <mxCell id="kDe-1MHkGWwvt0b6MnKs-43" value="(1)" style="edgeLabel;html=1;align=center;verticalAlign=middle;resizable=0;points=[];fontFamily=Helvetica;fontSize=11;fontColor=default;labelBackgroundColor=default;" parent="kDe-1MHkGWwvt0b6MnKs-24" vertex="1" connectable="0">
          <mxGeometry x="0.0022" y="-2" relative="1" as="geometry">
            <mxPoint as="offset" />
          </mxGeometry>
        </mxCell>
        <mxCell id="kDe-1MHkGWwvt0b6MnKs-116" style="edgeStyle=orthogonalEdgeStyle;shape=connector;rounded=0;orthogonalLoop=1;jettySize=auto;html=1;exitX=0.5;exitY=1;exitDx=0;exitDy=0;entryX=0.5;entryY=0;entryDx=0;entryDy=0;strokeColor=default;align=center;verticalAlign=middle;fontFamily=Helvetica;fontSize=11;fontColor=default;labelBackgroundColor=default;endArrow=none;endFill=0;" parent="1" source="VFVIMdCbOXR8x4Mu5Sau-7" target="VFVIMdCbOXR8x4Mu5Sau-52" edge="1">
          <mxGeometry relative="1" as="geometry">
            <Array as="points">
              <mxPoint x="550" y="700" />
              <mxPoint x="505" y="700" />
            </Array>
          </mxGeometry>
        </mxCell>
        <mxCell id="kDe-1MHkGWwvt0b6MnKs-117" style="edgeStyle=orthogonalEdgeStyle;shape=connector;rounded=0;orthogonalLoop=1;jettySize=auto;html=1;exitX=0.5;exitY=1;exitDx=0;exitDy=0;entryX=0.5;entryY=0;entryDx=0;entryDy=0;strokeColor=default;align=center;verticalAlign=middle;fontFamily=Helvetica;fontSize=11;fontColor=default;labelBackgroundColor=default;endArrow=none;endFill=0;" parent="1" source="VFVIMdCbOXR8x4Mu5Sau-7" target="VFVIMdCbOXR8x4Mu5Sau-48" edge="1">
          <mxGeometry relative="1" as="geometry" />
        </mxCell>
        <mxCell id="kDe-1MHkGWwvt0b6MnKs-119" style="edgeStyle=orthogonalEdgeStyle;shape=connector;rounded=0;orthogonalLoop=1;jettySize=auto;html=1;exitX=0.5;exitY=1;exitDx=0;exitDy=0;entryX=0.5;entryY=0;entryDx=0;entryDy=0;strokeColor=default;align=center;verticalAlign=middle;fontFamily=Helvetica;fontSize=11;fontColor=default;labelBackgroundColor=default;endArrow=none;endFill=0;" parent="1" source="VFVIMdCbOXR8x4Mu5Sau-7" target="VFVIMdCbOXR8x4Mu5Sau-47" edge="1">
          <mxGeometry relative="1" as="geometry">
            <Array as="points">
              <mxPoint x="550" y="700" />
              <mxPoint x="415" y="700" />
            </Array>
          </mxGeometry>
        </mxCell>
        <mxCell id="VFVIMdCbOXR8x4Mu5Sau-7" value="Passageiro" style="whiteSpace=wrap;html=1;align=center;" parent="1" vertex="1">
          <mxGeometry x="500" y="640" width="100" height="40" as="geometry" />
        </mxCell>
        <mxCell id="kDe-1MHkGWwvt0b6MnKs-16" style="edgeStyle=orthogonalEdgeStyle;shape=connector;rounded=0;orthogonalLoop=1;jettySize=auto;html=1;exitX=0;exitY=0.75;exitDx=0;exitDy=0;entryX=0.5;entryY=0;entryDx=0;entryDy=0;strokeColor=default;align=center;verticalAlign=middle;fontFamily=Helvetica;fontSize=11;fontColor=default;labelBackgroundColor=default;endArrow=none;endFill=0;" parent="1" source="VFVIMdCbOXR8x4Mu5Sau-8" target="pjg-q-o6dQqwzu6WAslv-4" edge="1">
          <mxGeometry relative="1" as="geometry">
            <Array as="points">
              <mxPoint x="180" y="290" />
              <mxPoint x="180" y="340" />
              <mxPoint x="125" y="340" />
            </Array>
            <mxPoint x="197.99" y="290" as="sourcePoint" />
            <mxPoint x="92.99000000000001" y="400" as="targetPoint" />
          </mxGeometry>
        </mxCell>
        <mxCell id="kDe-1MHkGWwvt0b6MnKs-61" value="(1)" style="edgeLabel;html=1;align=center;verticalAlign=middle;resizable=0;points=[];fontFamily=Helvetica;fontSize=11;fontColor=default;labelBackgroundColor=default;" parent="kDe-1MHkGWwvt0b6MnKs-16" vertex="1" connectable="0">
          <mxGeometry x="0.6017" y="-1" relative="1" as="geometry">
            <mxPoint x="2" y="20" as="offset" />
          </mxGeometry>
        </mxCell>
        <mxCell id="kDe-1MHkGWwvt0b6MnKs-131" value="" style="edgeStyle=orthogonalEdgeStyle;shape=connector;rounded=0;orthogonalLoop=1;jettySize=auto;html=1;strokeColor=default;align=center;verticalAlign=middle;fontFamily=Helvetica;fontSize=11;fontColor=default;labelBackgroundColor=default;endArrow=none;endFill=0;" parent="1" source="VFVIMdCbOXR8x4Mu5Sau-8" target="VFVIMdCbOXR8x4Mu5Sau-61" edge="1">
          <mxGeometry relative="1" as="geometry" />
        </mxCell>
        <mxCell id="llSJjnjl1L-JjQLvqV3q-49" value="" style="edgeStyle=orthogonalEdgeStyle;shape=connector;rounded=0;orthogonalLoop=1;jettySize=auto;html=1;strokeColor=default;align=center;verticalAlign=middle;fontFamily=Helvetica;fontSize=11;fontColor=default;labelBackgroundColor=default;endArrow=none;endFill=0;" parent="1" source="VFVIMdCbOXR8x4Mu5Sau-8" target="llSJjnjl1L-JjQLvqV3q-16" edge="1">
          <mxGeometry relative="1" as="geometry" />
        </mxCell>
        <mxCell id="llSJjnjl1L-JjQLvqV3q-51" value="(N)" style="edgeLabel;html=1;align=center;verticalAlign=middle;resizable=0;points=[];fontFamily=Helvetica;fontSize=11;fontColor=default;labelBackgroundColor=default;" parent="llSJjnjl1L-JjQLvqV3q-49" vertex="1" connectable="0">
          <mxGeometry x="-0.51" relative="1" as="geometry">
            <mxPoint as="offset" />
          </mxGeometry>
        </mxCell>
        <mxCell id="VFVIMdCbOXR8x4Mu5Sau-8" value="Aeronave" style="whiteSpace=wrap;html=1;align=center;" parent="1" vertex="1">
          <mxGeometry x="230" y="260" width="100" height="40" as="geometry" />
        </mxCell>
        <mxCell id="ej8KAwrQizuk1CulCsTu-16" value="" style="edgeStyle=orthogonalEdgeStyle;shape=connector;rounded=0;orthogonalLoop=1;jettySize=auto;html=1;strokeColor=default;align=center;verticalAlign=middle;fontFamily=Helvetica;fontSize=11;fontColor=default;labelBackgroundColor=default;endArrow=none;endFill=0;" parent="1" source="VFVIMdCbOXR8x4Mu5Sau-11" target="VFVIMdCbOXR8x4Mu5Sau-102" edge="1">
          <mxGeometry relative="1" as="geometry" />
        </mxCell>
        <mxCell id="ej8KAwrQizuk1CulCsTu-19" style="edgeStyle=orthogonalEdgeStyle;shape=connector;rounded=0;orthogonalLoop=1;jettySize=auto;html=1;exitX=0.5;exitY=0;exitDx=0;exitDy=0;entryX=0.5;entryY=1;entryDx=0;entryDy=0;strokeColor=default;align=center;verticalAlign=middle;fontFamily=Helvetica;fontSize=11;fontColor=default;labelBackgroundColor=default;endArrow=none;endFill=0;" parent="1" source="VFVIMdCbOXR8x4Mu5Sau-11" target="ej8KAwrQizuk1CulCsTu-9" edge="1">
          <mxGeometry relative="1" as="geometry">
            <Array as="points">
              <mxPoint x="80" y="-10" />
              <mxPoint x="165" y="-10" />
            </Array>
          </mxGeometry>
        </mxCell>
        <mxCell id="ej8KAwrQizuk1CulCsTu-20" style="edgeStyle=orthogonalEdgeStyle;shape=connector;rounded=0;orthogonalLoop=1;jettySize=auto;html=1;exitX=0.5;exitY=0;exitDx=0;exitDy=0;entryX=0.5;entryY=1;entryDx=0;entryDy=0;strokeColor=default;align=center;verticalAlign=middle;fontFamily=Helvetica;fontSize=11;fontColor=default;labelBackgroundColor=default;endArrow=none;endFill=0;" parent="1" source="VFVIMdCbOXR8x4Mu5Sau-11" target="VFVIMdCbOXR8x4Mu5Sau-104" edge="1">
          <mxGeometry relative="1" as="geometry">
            <Array as="points">
              <mxPoint x="80" y="-10" />
              <mxPoint x="250" y="-10" />
            </Array>
          </mxGeometry>
        </mxCell>
        <mxCell id="ej8KAwrQizuk1CulCsTu-24" value="" style="edgeStyle=orthogonalEdgeStyle;shape=connector;rounded=0;orthogonalLoop=1;jettySize=auto;html=1;strokeColor=default;align=center;verticalAlign=middle;fontFamily=Helvetica;fontSize=11;fontColor=default;labelBackgroundColor=default;endArrow=none;endFill=0;" parent="1" source="VFVIMdCbOXR8x4Mu5Sau-11" target="ej8KAwrQizuk1CulCsTu-23" edge="1">
          <mxGeometry relative="1" as="geometry" />
        </mxCell>
        <mxCell id="ej8KAwrQizuk1CulCsTu-30" value="(1)" style="edgeLabel;html=1;align=center;verticalAlign=middle;resizable=0;points=[];fontFamily=Helvetica;fontSize=11;fontColor=default;labelBackgroundColor=default;" parent="ej8KAwrQizuk1CulCsTu-24" vertex="1" connectable="0">
          <mxGeometry x="0.0053" relative="1" as="geometry">
            <mxPoint as="offset" />
          </mxGeometry>
        </mxCell>
        <mxCell id="VFVIMdCbOXR8x4Mu5Sau-11" value="Pista" style="whiteSpace=wrap;html=1;align=center;" parent="1" vertex="1">
          <mxGeometry x="29.99000000000001" width="100" height="40" as="geometry" />
        </mxCell>
        <mxCell id="VFVIMdCbOXR8x4Mu5Sau-12" value="PaisDestino" style="whiteSpace=wrap;html=1;align=center;" parent="1" vertex="1">
          <mxGeometry x="560" y="-2.5" width="100" height="40" as="geometry" />
        </mxCell>
        <mxCell id="pjg-q-o6dQqwzu6WAslv-76" value="" style="edgeStyle=orthogonalEdgeStyle;shape=connector;rounded=0;orthogonalLoop=1;jettySize=auto;html=1;strokeColor=default;align=center;verticalAlign=middle;fontFamily=Helvetica;fontSize=11;fontColor=default;labelBackgroundColor=default;endArrow=none;endFill=0;" parent="1" source="VFVIMdCbOXR8x4Mu5Sau-14" target="pjg-q-o6dQqwzu6WAslv-75" edge="1">
          <mxGeometry relative="1" as="geometry" />
        </mxCell>
        <mxCell id="kDe-1MHkGWwvt0b6MnKs-67" value="(N)" style="edgeLabel;html=1;align=center;verticalAlign=middle;resizable=0;points=[];fontFamily=Helvetica;fontSize=11;fontColor=default;labelBackgroundColor=default;" parent="pjg-q-o6dQqwzu6WAslv-76" vertex="1" connectable="0">
          <mxGeometry x="0.0125" relative="1" as="geometry">
            <mxPoint as="offset" />
          </mxGeometry>
        </mxCell>
        <mxCell id="kDe-1MHkGWwvt0b6MnKs-84" style="edgeStyle=orthogonalEdgeStyle;shape=connector;rounded=0;orthogonalLoop=1;jettySize=auto;html=1;exitX=1;exitY=0.5;exitDx=0;exitDy=0;entryX=0.5;entryY=0;entryDx=0;entryDy=0;strokeColor=default;align=center;verticalAlign=middle;fontFamily=Helvetica;fontSize=11;fontColor=default;labelBackgroundColor=default;endArrow=none;endFill=0;" parent="1" source="VFVIMdCbOXR8x4Mu5Sau-14" target="VFVIMdCbOXR8x4Mu5Sau-139" edge="1">
          <mxGeometry relative="1" as="geometry" />
        </mxCell>
        <mxCell id="kDe-1MHkGWwvt0b6MnKs-85" style="edgeStyle=orthogonalEdgeStyle;shape=connector;rounded=0;orthogonalLoop=1;jettySize=auto;html=1;exitX=1;exitY=0.5;exitDx=0;exitDy=0;entryX=0.5;entryY=0;entryDx=0;entryDy=0;strokeColor=default;align=center;verticalAlign=middle;fontFamily=Helvetica;fontSize=11;fontColor=default;labelBackgroundColor=default;endArrow=none;endFill=0;" parent="1" source="VFVIMdCbOXR8x4Mu5Sau-14" target="kDe-1MHkGWwvt0b6MnKs-83" edge="1">
          <mxGeometry relative="1" as="geometry" />
        </mxCell>
        <mxCell id="kDe-1MHkGWwvt0b6MnKs-86" style="edgeStyle=orthogonalEdgeStyle;shape=connector;rounded=0;orthogonalLoop=1;jettySize=auto;html=1;exitX=1;exitY=0.5;exitDx=0;exitDy=0;entryX=0.5;entryY=0;entryDx=0;entryDy=0;strokeColor=default;align=center;verticalAlign=middle;fontFamily=Helvetica;fontSize=11;fontColor=default;labelBackgroundColor=default;endArrow=none;endFill=0;" parent="1" source="VFVIMdCbOXR8x4Mu5Sau-14" target="VFVIMdCbOXR8x4Mu5Sau-135" edge="1">
          <mxGeometry relative="1" as="geometry" />
        </mxCell>
        <mxCell id="VFVIMdCbOXR8x4Mu5Sau-14" value="Mecanico" style="whiteSpace=wrap;html=1;align=center;" parent="1" vertex="1">
          <mxGeometry x="-239.50000000000003" y="480" width="100" height="40" as="geometry" />
        </mxCell>
        <mxCell id="kDe-1MHkGWwvt0b6MnKs-19" style="edgeStyle=orthogonalEdgeStyle;shape=connector;rounded=0;orthogonalLoop=1;jettySize=auto;html=1;exitX=0.5;exitY=1;exitDx=0;exitDy=0;entryX=0.5;entryY=0;entryDx=0;entryDy=0;strokeColor=default;align=center;verticalAlign=middle;fontFamily=Helvetica;fontSize=11;fontColor=default;labelBackgroundColor=default;endArrow=none;endFill=0;" parent="1" source="VFVIMdCbOXR8x4Mu5Sau-15" target="kDe-1MHkGWwvt0b6MnKs-11" edge="1">
          <mxGeometry relative="1" as="geometry">
            <Array as="points">
              <mxPoint x="530" y="440" />
              <mxPoint x="530" y="470" />
              <mxPoint x="505" y="470" />
            </Array>
          </mxGeometry>
        </mxCell>
        <mxCell id="kDe-1MHkGWwvt0b6MnKs-40" value="(1)" style="edgeLabel;html=1;align=center;verticalAlign=middle;resizable=0;points=[];fontFamily=Helvetica;fontSize=11;fontColor=default;labelBackgroundColor=default;" parent="kDe-1MHkGWwvt0b6MnKs-19" vertex="1" connectable="0">
          <mxGeometry x="-0.0139" relative="1" as="geometry">
            <mxPoint x="-8" as="offset" />
          </mxGeometry>
        </mxCell>
        <mxCell id="kDe-1MHkGWwvt0b6MnKs-74" style="edgeStyle=orthogonalEdgeStyle;shape=connector;rounded=0;orthogonalLoop=1;jettySize=auto;html=1;exitX=0;exitY=0.5;exitDx=0;exitDy=0;entryX=1;entryY=0.5;entryDx=0;entryDy=0;strokeColor=default;align=center;verticalAlign=middle;fontFamily=Helvetica;fontSize=11;fontColor=default;labelBackgroundColor=default;endArrow=none;endFill=0;" parent="1" source="VFVIMdCbOXR8x4Mu5Sau-15" target="VFVIMdCbOXR8x4Mu5Sau-82" edge="1">
          <mxGeometry relative="1" as="geometry">
            <Array as="points">
              <mxPoint x="480" y="420" />
              <mxPoint x="480" y="400" />
            </Array>
          </mxGeometry>
        </mxCell>
        <mxCell id="VFVIMdCbOXR8x4Mu5Sau-15" value="Tripulante" style="whiteSpace=wrap;html=1;align=center;" parent="1" vertex="1">
          <mxGeometry x="500" y="400" width="100" height="40" as="geometry" />
        </mxCell>
        <mxCell id="VFVIMdCbOXR8x4Mu5Sau-16" value="cnpj" style="ellipse;whiteSpace=wrap;html=1;align=center;fontStyle=4;fontSize=11;" parent="1" vertex="1">
          <mxGeometry x="-150" y="90" width="80" height="30" as="geometry" />
        </mxCell>
        <mxCell id="kDe-1MHkGWwvt0b6MnKs-92" style="edgeStyle=orthogonalEdgeStyle;shape=connector;rounded=0;orthogonalLoop=1;jettySize=auto;html=1;exitX=0.5;exitY=1;exitDx=0;exitDy=0;entryX=0.5;entryY=0;entryDx=0;entryDy=0;strokeColor=default;align=center;verticalAlign=middle;fontFamily=Helvetica;fontSize=11;fontColor=default;labelBackgroundColor=default;endArrow=none;endFill=0;" parent="1" source="VFVIMdCbOXR8x4Mu5Sau-19" target="VFVIMdCbOXR8x4Mu5Sau-1" edge="1">
          <mxGeometry relative="1" as="geometry">
            <Array as="points">
              <mxPoint x="-20" y="130" />
              <mxPoint x="-110" y="130" />
            </Array>
          </mxGeometry>
        </mxCell>
        <mxCell id="VFVIMdCbOXR8x4Mu5Sau-19" value="nome_fantasia" style="ellipse;whiteSpace=wrap;html=1;align=center;fontSize=11;" parent="1" vertex="1">
          <mxGeometry x="-60" y="90" width="80" height="30" as="geometry" />
        </mxCell>
        <mxCell id="pjg-q-o6dQqwzu6WAslv-33" value="" style="edgeStyle=orthogonalEdgeStyle;shape=connector;rounded=0;orthogonalLoop=1;jettySize=auto;html=1;strokeColor=default;align=center;verticalAlign=middle;fontFamily=Helvetica;fontSize=11;fontColor=default;labelBackgroundColor=default;endArrow=none;endFill=0;" parent="1" source="VFVIMdCbOXR8x4Mu5Sau-22" target="VFVIMdCbOXR8x4Mu5Sau-11" edge="1">
          <mxGeometry relative="1" as="geometry" />
        </mxCell>
        <mxCell id="kDe-1MHkGWwvt0b6MnKs-28" value="(N)" style="edgeLabel;html=1;align=center;verticalAlign=middle;resizable=0;points=[];fontFamily=Helvetica;fontSize=11;fontColor=default;labelBackgroundColor=default;" parent="pjg-q-o6dQqwzu6WAslv-33" vertex="1" connectable="0">
          <mxGeometry x="-0.0347" y="-1" relative="1" as="geometry">
            <mxPoint y="-1" as="offset" />
          </mxGeometry>
        </mxCell>
        <mxCell id="VFVIMdCbOXR8x4Mu5Sau-22" value="&lt;font style=&quot;font-size: 10px;&quot;&gt;gerencia&lt;/font&gt;" style="shape=rhombus;perimeter=rhombusPerimeter;whiteSpace=wrap;html=1;align=center;fontSize=10;" parent="1" vertex="1">
          <mxGeometry x="44.989999999999995" y="140" width="70" height="40" as="geometry" />
        </mxCell>
        <mxCell id="kDe-1MHkGWwvt0b6MnKs-130" style="edgeStyle=orthogonalEdgeStyle;shape=connector;rounded=0;orthogonalLoop=1;jettySize=auto;html=1;exitX=0;exitY=0.5;exitDx=0;exitDy=0;strokeColor=default;align=center;verticalAlign=middle;fontFamily=Helvetica;fontSize=11;fontColor=default;labelBackgroundColor=default;endArrow=none;endFill=0;" parent="1" source="VFVIMdCbOXR8x4Mu5Sau-27" edge="1">
          <mxGeometry relative="1" as="geometry">
            <mxPoint x="790" y="185" as="targetPoint" />
          </mxGeometry>
        </mxCell>
        <mxCell id="VFVIMdCbOXR8x4Mu5Sau-27" value="hrr_partida" style="ellipse;whiteSpace=wrap;html=1;align=center;fontSize=11;" parent="1" vertex="1">
          <mxGeometry x="810" y="170" width="80" height="30" as="geometry" />
        </mxCell>
        <mxCell id="VFVIMdCbOXR8x4Mu5Sau-30" value="cnpj" style="ellipse;whiteSpace=wrap;html=1;align=center;fontStyle=4;fontSize=11;" parent="1" vertex="1">
          <mxGeometry x="-150" y="210" width="80" height="30" as="geometry" />
        </mxCell>
        <mxCell id="kDe-1MHkGWwvt0b6MnKs-99" style="edgeStyle=orthogonalEdgeStyle;shape=connector;rounded=0;orthogonalLoop=1;jettySize=auto;html=1;exitX=0.5;exitY=1;exitDx=0;exitDy=0;entryX=0.5;entryY=0;entryDx=0;entryDy=0;strokeColor=default;align=center;verticalAlign=middle;fontFamily=Helvetica;fontSize=11;fontColor=default;labelBackgroundColor=default;endArrow=none;endFill=0;" parent="1" source="VFVIMdCbOXR8x4Mu5Sau-31" target="VFVIMdCbOXR8x4Mu5Sau-6" edge="1">
          <mxGeometry relative="1" as="geometry">
            <Array as="points">
              <mxPoint x="-20" y="250" />
              <mxPoint x="-110" y="250" />
            </Array>
          </mxGeometry>
        </mxCell>
        <mxCell id="VFVIMdCbOXR8x4Mu5Sau-31" value="nome_fantasia" style="ellipse;whiteSpace=wrap;html=1;align=center;fontSize=11;" parent="1" vertex="1">
          <mxGeometry x="-60" y="210" width="80" height="30" as="geometry" />
        </mxCell>
        <mxCell id="llSJjnjl1L-JjQLvqV3q-10" style="edgeStyle=orthogonalEdgeStyle;shape=connector;rounded=0;orthogonalLoop=1;jettySize=auto;html=1;exitX=0;exitY=0.5;exitDx=0;exitDy=0;entryX=1;entryY=0.5;entryDx=0;entryDy=0;strokeColor=default;align=center;verticalAlign=middle;fontFamily=Helvetica;fontSize=11;fontColor=default;labelBackgroundColor=default;endArrow=none;endFill=0;" parent="1" source="VFVIMdCbOXR8x4Mu5Sau-40" target="pjg-q-o6dQqwzu6WAslv-19" edge="1">
          <mxGeometry relative="1" as="geometry" />
        </mxCell>
        <mxCell id="VFVIMdCbOXR8x4Mu5Sau-40" value="embarque" style="ellipse;whiteSpace=wrap;html=1;align=center;fontSize=11;" parent="1" vertex="1">
          <mxGeometry x="827" y="5" width="80" height="30" as="geometry" />
        </mxCell>
        <mxCell id="pjg-q-o6dQqwzu6WAslv-52" value="" style="edgeStyle=orthogonalEdgeStyle;shape=connector;rounded=0;orthogonalLoop=1;jettySize=auto;html=1;strokeColor=default;align=center;verticalAlign=middle;fontFamily=Helvetica;fontSize=11;fontColor=default;labelBackgroundColor=default;endArrow=none;endFill=0;" parent="1" source="VFVIMdCbOXR8x4Mu5Sau-44" edge="1">
          <mxGeometry relative="1" as="geometry">
            <mxPoint x="925" y="460" as="targetPoint" />
          </mxGeometry>
        </mxCell>
        <mxCell id="kDe-1MHkGWwvt0b6MnKs-49" value="(N)" style="edgeLabel;html=1;align=center;verticalAlign=middle;resizable=0;points=[];fontFamily=Helvetica;fontSize=11;fontColor=default;labelBackgroundColor=default;" parent="pjg-q-o6dQqwzu6WAslv-52" vertex="1" connectable="0">
          <mxGeometry x="-0.0108" relative="1" as="geometry">
            <mxPoint as="offset" />
          </mxGeometry>
        </mxCell>
        <mxCell id="VFVIMdCbOXR8x4Mu5Sau-44" value="&lt;font style=&quot;font-size: 10px;&quot;&gt;reserva&lt;/font&gt;" style="shape=rhombus;perimeter=rhombusPerimeter;whiteSpace=wrap;html=1;align=center;fontSize=10;" parent="1" vertex="1">
          <mxGeometry x="890" y="330" width="70" height="40" as="geometry" />
        </mxCell>
        <mxCell id="VFVIMdCbOXR8x4Mu5Sau-47" value="nome" style="ellipse;whiteSpace=wrap;html=1;align=center;fontSize=11;" parent="1" vertex="1">
          <mxGeometry x="375" y="710" width="80" height="30" as="geometry" />
        </mxCell>
        <mxCell id="VFVIMdCbOXR8x4Mu5Sau-48" value="passaporte" style="ellipse;whiteSpace=wrap;html=1;align=center;fontSize=11;" parent="1" vertex="1">
          <mxGeometry x="555" y="710" width="80" height="30" as="geometry" />
        </mxCell>
        <mxCell id="VFVIMdCbOXR8x4Mu5Sau-52" value="cpf" style="ellipse;whiteSpace=wrap;html=1;align=center;fontStyle=4;fontSize=11;" parent="1" vertex="1">
          <mxGeometry x="465" y="710" width="80" height="30" as="geometry" />
        </mxCell>
        <mxCell id="pjg-q-o6dQqwzu6WAslv-45" style="edgeStyle=orthogonalEdgeStyle;shape=connector;rounded=0;orthogonalLoop=1;jettySize=auto;html=1;exitX=0;exitY=0.5;exitDx=0;exitDy=0;entryX=1;entryY=0.5;entryDx=0;entryDy=0;strokeColor=default;align=center;verticalAlign=middle;fontFamily=Helvetica;fontSize=11;fontColor=default;labelBackgroundColor=default;endArrow=none;endFill=0;" parent="1" source="VFVIMdCbOXR8x4Mu5Sau-58" target="VFVIMdCbOXR8x4Mu5Sau-8" edge="1">
          <mxGeometry relative="1" as="geometry" />
        </mxCell>
        <mxCell id="kDe-1MHkGWwvt0b6MnKs-59" value="(1)" style="edgeLabel;html=1;align=center;verticalAlign=middle;resizable=0;points=[];fontFamily=Helvetica;fontSize=11;fontColor=default;labelBackgroundColor=default;" parent="pjg-q-o6dQqwzu6WAslv-45" vertex="1" connectable="0">
          <mxGeometry y="-1" relative="1" as="geometry">
            <mxPoint as="offset" />
          </mxGeometry>
        </mxCell>
        <mxCell id="pjg-q-o6dQqwzu6WAslv-49" style="edgeStyle=orthogonalEdgeStyle;shape=connector;rounded=0;orthogonalLoop=1;jettySize=auto;html=1;exitX=1;exitY=0.5;exitDx=0;exitDy=0;entryX=0;entryY=0.75;entryDx=0;entryDy=0;strokeColor=default;align=center;verticalAlign=middle;fontFamily=Helvetica;fontSize=11;fontColor=default;labelBackgroundColor=default;endArrow=none;endFill=0;" parent="1" source="VFVIMdCbOXR8x4Mu5Sau-58" target="VFVIMdCbOXR8x4Mu5Sau-5" edge="1">
          <mxGeometry relative="1" as="geometry" />
        </mxCell>
        <mxCell id="kDe-1MHkGWwvt0b6MnKs-58" value="(N)" style="edgeLabel;html=1;align=center;verticalAlign=middle;resizable=0;points=[];fontFamily=Helvetica;fontSize=11;fontColor=default;labelBackgroundColor=default;" parent="pjg-q-o6dQqwzu6WAslv-49" vertex="1" connectable="0">
          <mxGeometry x="0.0135" relative="1" as="geometry">
            <mxPoint as="offset" />
          </mxGeometry>
        </mxCell>
        <mxCell id="VFVIMdCbOXR8x4Mu5Sau-58" value="&lt;font style=&quot;font-size: 10px;&quot;&gt;realiza&lt;/font&gt;" style="shape=rhombus;perimeter=rhombusPerimeter;whiteSpace=wrap;html=1;align=center;fontSize=10;" parent="1" vertex="1">
          <mxGeometry x="450" y="260" width="70" height="40" as="geometry" />
        </mxCell>
        <mxCell id="VFVIMdCbOXR8x4Mu5Sau-61" value="num_serie" style="ellipse;whiteSpace=wrap;html=1;align=center;fontSize=11;fontStyle=4" parent="1" vertex="1">
          <mxGeometry x="240" y="210" width="80" height="30" as="geometry" />
        </mxCell>
        <mxCell id="kDe-1MHkGWwvt0b6MnKs-132" style="edgeStyle=orthogonalEdgeStyle;shape=connector;rounded=0;orthogonalLoop=1;jettySize=auto;html=1;exitX=0.5;exitY=1;exitDx=0;exitDy=0;entryX=0.5;entryY=0;entryDx=0;entryDy=0;strokeColor=default;align=center;verticalAlign=middle;fontFamily=Helvetica;fontSize=11;fontColor=default;labelBackgroundColor=default;endArrow=none;endFill=0;" parent="1" source="VFVIMdCbOXR8x4Mu5Sau-63" target="VFVIMdCbOXR8x4Mu5Sau-8" edge="1">
          <mxGeometry relative="1" as="geometry">
            <Array as="points">
              <mxPoint x="370" y="250" />
              <mxPoint x="280" y="250" />
            </Array>
          </mxGeometry>
        </mxCell>
        <mxCell id="VFVIMdCbOXR8x4Mu5Sau-63" value="data_fabricacao" style="ellipse;whiteSpace=wrap;html=1;align=center;fontSize=11;" parent="1" vertex="1">
          <mxGeometry x="330" y="210" width="80" height="30" as="geometry" />
        </mxCell>
        <mxCell id="pjg-q-o6dQqwzu6WAslv-60" style="edgeStyle=orthogonalEdgeStyle;shape=connector;rounded=0;orthogonalLoop=1;jettySize=auto;html=1;exitX=0.5;exitY=0;exitDx=0;exitDy=0;entryX=0.25;entryY=1;entryDx=0;entryDy=0;strokeColor=default;align=center;verticalAlign=middle;fontFamily=Helvetica;fontSize=11;fontColor=default;labelBackgroundColor=default;endArrow=none;endFill=0;" parent="1" source="VFVIMdCbOXR8x4Mu5Sau-79" target="VFVIMdCbOXR8x4Mu5Sau-5" edge="1">
          <mxGeometry relative="1" as="geometry">
            <Array as="points">
              <mxPoint x="595" y="270" />
              <mxPoint x="655" y="270" />
            </Array>
          </mxGeometry>
        </mxCell>
        <mxCell id="kDe-1MHkGWwvt0b6MnKs-38" value="(N)" style="edgeLabel;html=1;align=center;verticalAlign=middle;resizable=0;points=[];fontFamily=Helvetica;fontSize=11;fontColor=default;labelBackgroundColor=default;" parent="pjg-q-o6dQqwzu6WAslv-60" vertex="1" connectable="0">
          <mxGeometry x="0.0131" relative="1" as="geometry">
            <mxPoint x="4" as="offset" />
          </mxGeometry>
        </mxCell>
        <mxCell id="pjg-q-o6dQqwzu6WAslv-62" style="edgeStyle=orthogonalEdgeStyle;shape=connector;rounded=0;orthogonalLoop=1;jettySize=auto;html=1;exitX=0.5;exitY=1;exitDx=0;exitDy=0;entryX=0.5;entryY=0;entryDx=0;entryDy=0;strokeColor=default;align=center;verticalAlign=middle;fontFamily=Helvetica;fontSize=11;fontColor=default;labelBackgroundColor=default;endArrow=none;endFill=0;" parent="1" source="VFVIMdCbOXR8x4Mu5Sau-79" target="VFVIMdCbOXR8x4Mu5Sau-15" edge="1">
          <mxGeometry relative="1" as="geometry" />
        </mxCell>
        <mxCell id="kDe-1MHkGWwvt0b6MnKs-37" value="(N)" style="edgeLabel;html=1;align=center;verticalAlign=middle;resizable=0;points=[];fontFamily=Helvetica;fontSize=11;fontColor=default;labelBackgroundColor=default;" parent="pjg-q-o6dQqwzu6WAslv-62" vertex="1" connectable="0">
          <mxGeometry x="0.0006" y="-2" relative="1" as="geometry">
            <mxPoint as="offset" />
          </mxGeometry>
        </mxCell>
        <mxCell id="VFVIMdCbOXR8x4Mu5Sau-79" value="&lt;font style=&quot;font-size: 10px;&quot;&gt;tripulado&lt;/font&gt;" style="shape=rhombus;perimeter=rhombusPerimeter;whiteSpace=wrap;html=1;align=center;fontSize=10;" parent="1" vertex="1">
          <mxGeometry x="560" y="300" width="70" height="40" as="geometry" />
        </mxCell>
        <mxCell id="VFVIMdCbOXR8x4Mu5Sau-82" value="cpf" style="ellipse;whiteSpace=wrap;html=1;align=center;fontStyle=4;fontSize=11;" parent="1" vertex="1">
          <mxGeometry x="390" y="385" width="80" height="30" as="geometry" />
        </mxCell>
        <mxCell id="kDe-1MHkGWwvt0b6MnKs-78" style="edgeStyle=orthogonalEdgeStyle;shape=connector;rounded=0;orthogonalLoop=1;jettySize=auto;html=1;exitX=1;exitY=0.5;exitDx=0;exitDy=0;strokeColor=default;align=center;verticalAlign=middle;fontFamily=Helvetica;fontSize=11;fontColor=default;labelBackgroundColor=default;endArrow=none;endFill=0;" parent="1" source="VFVIMdCbOXR8x4Mu5Sau-84" edge="1">
          <mxGeometry relative="1" as="geometry">
            <mxPoint x="480" y="399.9999999999998" as="targetPoint" />
          </mxGeometry>
        </mxCell>
        <mxCell id="VFVIMdCbOXR8x4Mu5Sau-84" value="nome" style="ellipse;whiteSpace=wrap;html=1;align=center;fontSize=11;" parent="1" vertex="1">
          <mxGeometry x="390" y="350" width="80" height="30" as="geometry" />
        </mxCell>
        <mxCell id="kDe-1MHkGWwvt0b6MnKs-81" style="edgeStyle=orthogonalEdgeStyle;shape=connector;rounded=0;orthogonalLoop=1;jettySize=auto;html=1;exitX=1;exitY=0.5;exitDx=0;exitDy=0;strokeColor=default;align=center;verticalAlign=middle;fontFamily=Helvetica;fontSize=11;fontColor=default;labelBackgroundColor=default;endArrow=none;endFill=0;" parent="1" source="VFVIMdCbOXR8x4Mu5Sau-87" edge="1">
          <mxGeometry relative="1" as="geometry">
            <mxPoint x="480" y="419.9999999999998" as="targetPoint" />
          </mxGeometry>
        </mxCell>
        <mxCell id="VFVIMdCbOXR8x4Mu5Sau-87" value="cargo" style="ellipse;whiteSpace=wrap;html=1;align=center;fontSize=11;" parent="1" vertex="1">
          <mxGeometry x="390" y="420" width="80" height="30" as="geometry" />
        </mxCell>
        <mxCell id="kDe-1MHkGWwvt0b6MnKs-82" style="edgeStyle=orthogonalEdgeStyle;shape=connector;rounded=0;orthogonalLoop=1;jettySize=auto;html=1;exitX=1;exitY=0.5;exitDx=0;exitDy=0;entryX=0;entryY=0.5;entryDx=0;entryDy=0;strokeColor=default;align=center;verticalAlign=middle;fontFamily=Helvetica;fontSize=11;fontColor=default;labelBackgroundColor=default;endArrow=none;endFill=0;" parent="1" source="VFVIMdCbOXR8x4Mu5Sau-89" target="VFVIMdCbOXR8x4Mu5Sau-15" edge="1">
          <mxGeometry relative="1" as="geometry">
            <Array as="points">
              <mxPoint x="480" y="470" />
              <mxPoint x="480" y="420" />
            </Array>
          </mxGeometry>
        </mxCell>
        <mxCell id="VFVIMdCbOXR8x4Mu5Sau-89" value="data_nasc" style="ellipse;whiteSpace=wrap;html=1;align=center;fontSize=11;" parent="1" vertex="1">
          <mxGeometry x="390" y="455" width="80" height="30" as="geometry" />
        </mxCell>
        <mxCell id="pjg-q-o6dQqwzu6WAslv-48" style="edgeStyle=orthogonalEdgeStyle;shape=connector;rounded=0;orthogonalLoop=1;jettySize=auto;html=1;exitX=1;exitY=0.5;exitDx=0;exitDy=0;entryX=0;entryY=0.25;entryDx=0;entryDy=0;strokeColor=default;align=center;verticalAlign=middle;fontFamily=Helvetica;fontSize=11;fontColor=default;labelBackgroundColor=default;endArrow=none;endFill=0;" parent="1" source="VFVIMdCbOXR8x4Mu5Sau-94" target="VFVIMdCbOXR8x4Mu5Sau-5" edge="1">
          <mxGeometry relative="1" as="geometry" />
        </mxCell>
        <mxCell id="kDe-1MHkGWwvt0b6MnKs-31" value="(N)" style="edgeLabel;html=1;align=center;verticalAlign=middle;resizable=0;points=[];fontFamily=Helvetica;fontSize=11;fontColor=default;labelBackgroundColor=default;" parent="pjg-q-o6dQqwzu6WAslv-48" vertex="1" connectable="0">
          <mxGeometry y="1" relative="1" as="geometry">
            <mxPoint as="offset" />
          </mxGeometry>
        </mxCell>
        <mxCell id="VFVIMdCbOXR8x4Mu5Sau-94" value="&lt;font style=&quot;font-size: 10px;&quot;&gt;usa&lt;/font&gt;" style="shape=rhombus;perimeter=rhombusPerimeter;whiteSpace=wrap;html=1;align=center;fontSize=10;" parent="1" vertex="1">
          <mxGeometry x="450" y="140" width="70" height="40" as="geometry" />
        </mxCell>
        <mxCell id="VFVIMdCbOXR8x4Mu5Sau-102" value="id" style="ellipse;whiteSpace=wrap;html=1;align=center;fontSize=11;fontStyle=4" parent="1" vertex="1">
          <mxGeometry x="39.989999999999995" y="-52.5" width="80" height="30" as="geometry" />
        </mxCell>
        <mxCell id="VFVIMdCbOXR8x4Mu5Sau-104" value="comprimento" style="ellipse;whiteSpace=wrap;html=1;align=center;fontSize=11;" parent="1" vertex="1">
          <mxGeometry x="210" y="-52.5" width="80" height="30" as="geometry" />
        </mxCell>
        <mxCell id="VFVIMdCbOXR8x4Mu5Sau-108" value="" style="edgeStyle=orthogonalEdgeStyle;shape=connector;rounded=0;orthogonalLoop=1;jettySize=auto;html=1;strokeColor=default;align=center;verticalAlign=middle;fontFamily=Helvetica;fontSize=11;fontColor=default;labelBackgroundColor=default;endArrow=none;endFill=0;" parent="1" source="VFVIMdCbOXR8x4Mu5Sau-106" target="VFVIMdCbOXR8x4Mu5Sau-12" edge="1">
          <mxGeometry relative="1" as="geometry">
            <Array as="points">
              <mxPoint x="610" y="70" />
              <mxPoint x="610" y="70" />
            </Array>
          </mxGeometry>
        </mxCell>
        <mxCell id="kDe-1MHkGWwvt0b6MnKs-34" value="1" style="edgeLabel;html=1;align=center;verticalAlign=middle;resizable=0;points=[];fontFamily=Helvetica;fontSize=11;fontColor=default;labelBackgroundColor=default;" parent="VFVIMdCbOXR8x4Mu5Sau-108" vertex="1" connectable="0">
          <mxGeometry x="-0.0515" y="1" relative="1" as="geometry">
            <mxPoint as="offset" />
          </mxGeometry>
        </mxCell>
        <mxCell id="OotWGyNmuN1GMTL397Em-30" value="(1)" style="edgeLabel;html=1;align=center;verticalAlign=middle;resizable=0;points=[];fontFamily=Helvetica;fontSize=11;fontColor=default;labelBackgroundColor=default;" parent="VFVIMdCbOXR8x4Mu5Sau-108" vertex="1" connectable="0">
          <mxGeometry x="-0.028" y="1" relative="1" as="geometry">
            <mxPoint as="offset" />
          </mxGeometry>
        </mxCell>
        <mxCell id="VFVIMdCbOXR8x4Mu5Sau-106" value="&lt;font style=&quot;font-size: 10px;&quot;&gt;possui&lt;/font&gt;" style="shape=rhombus;perimeter=rhombusPerimeter;whiteSpace=wrap;html=1;align=center;fontSize=10;" parent="1" vertex="1">
          <mxGeometry x="575" y="100" width="70" height="40" as="geometry" />
        </mxCell>
        <mxCell id="SXHeSPfVGefWCoJjLTRm-4" style="edgeStyle=orthogonalEdgeStyle;shape=connector;rounded=0;orthogonalLoop=1;jettySize=auto;html=1;exitX=1;exitY=0.5;exitDx=0;exitDy=0;entryX=0;entryY=0.5;entryDx=0;entryDy=0;strokeColor=default;align=center;verticalAlign=middle;fontFamily=Helvetica;fontSize=11;fontColor=default;labelBackgroundColor=default;startFill=0;endArrow=none;" parent="1" source="VFVIMdCbOXR8x4Mu5Sau-124" target="VFVIMdCbOXR8x4Mu5Sau-12" edge="1">
          <mxGeometry relative="1" as="geometry" />
        </mxCell>
        <mxCell id="VFVIMdCbOXR8x4Mu5Sau-124" value="pais" style="ellipse;whiteSpace=wrap;html=1;align=center;fontSize=11;" parent="1" vertex="1">
          <mxGeometry x="440" y="-30" width="80" height="30" as="geometry" />
        </mxCell>
        <mxCell id="VFVIMdCbOXR8x4Mu5Sau-135" value="nome" style="ellipse;whiteSpace=wrap;html=1;align=center;fontSize=11;" parent="1" vertex="1">
          <mxGeometry x="-54.499999999999986" y="520" width="80" height="30" as="geometry" />
        </mxCell>
        <mxCell id="VFVIMdCbOXR8x4Mu5Sau-139" value="cpf" style="ellipse;whiteSpace=wrap;html=1;align=center;fontStyle=4;fontSize=11;" parent="1" vertex="1">
          <mxGeometry x="-139.5" y="520" width="80" height="30" as="geometry" />
        </mxCell>
        <mxCell id="kDe-1MHkGWwvt0b6MnKs-126" style="edgeStyle=orthogonalEdgeStyle;shape=connector;rounded=0;orthogonalLoop=1;jettySize=auto;html=1;exitX=0;exitY=0.5;exitDx=0;exitDy=0;entryX=1;entryY=0.5;entryDx=0;entryDy=0;strokeColor=default;align=center;verticalAlign=middle;fontFamily=Helvetica;fontSize=11;fontColor=default;labelBackgroundColor=default;endArrow=none;endFill=0;" parent="1" source="pjg-q-o6dQqwzu6WAslv-2" target="VFVIMdCbOXR8x4Mu5Sau-5" edge="1">
          <mxGeometry relative="1" as="geometry">
            <Array as="points">
              <mxPoint x="790" y="115" />
              <mxPoint x="790" y="220" />
            </Array>
          </mxGeometry>
        </mxCell>
        <mxCell id="pjg-q-o6dQqwzu6WAslv-2" value="id" style="ellipse;whiteSpace=wrap;html=1;align=center;fontSize=11;fontStyle=4" parent="1" vertex="1">
          <mxGeometry x="810" y="100" width="80" height="30" as="geometry" />
        </mxCell>
        <mxCell id="pjg-q-o6dQqwzu6WAslv-71" style="edgeStyle=orthogonalEdgeStyle;shape=connector;rounded=0;orthogonalLoop=1;jettySize=auto;html=1;exitX=1;exitY=0.5;exitDx=0;exitDy=0;entryX=0;entryY=0.5;entryDx=0;entryDy=0;strokeColor=default;align=center;verticalAlign=middle;fontFamily=Helvetica;fontSize=11;fontColor=default;labelBackgroundColor=default;endArrow=none;endFill=0;" parent="1" source="pjg-q-o6dQqwzu6WAslv-3" target="pjg-q-o6dQqwzu6WAslv-4" edge="1">
          <mxGeometry relative="1" as="geometry" />
        </mxCell>
        <mxCell id="kDe-1MHkGWwvt0b6MnKs-62" value="(N)" style="edgeLabel;html=1;align=center;verticalAlign=middle;resizable=0;points=[];fontFamily=Helvetica;fontSize=11;fontColor=default;labelBackgroundColor=default;" parent="pjg-q-o6dQqwzu6WAslv-71" vertex="1" connectable="0">
          <mxGeometry x="-0.011" y="-1" relative="1" as="geometry">
            <mxPoint as="offset" />
          </mxGeometry>
        </mxCell>
        <mxCell id="pjg-q-o6dQqwzu6WAslv-3" value="Inspecao" style="whiteSpace=wrap;html=1;align=center;" parent="1" vertex="1">
          <mxGeometry x="-49.51" y="400" width="100" height="40" as="geometry" />
        </mxCell>
        <mxCell id="pjg-q-o6dQqwzu6WAslv-4" value="&lt;font style=&quot;font-size: 10px;&quot;&gt;sofre&lt;/font&gt;" style="shape=rhombus;perimeter=rhombusPerimeter;whiteSpace=wrap;html=1;align=center;fontSize=10;" parent="1" vertex="1">
          <mxGeometry x="90" y="400" width="70" height="40" as="geometry" />
        </mxCell>
        <mxCell id="kDe-1MHkGWwvt0b6MnKs-94" value="" style="edgeStyle=orthogonalEdgeStyle;shape=connector;rounded=0;orthogonalLoop=1;jettySize=auto;html=1;strokeColor=default;align=center;verticalAlign=middle;fontFamily=Helvetica;fontSize=11;fontColor=default;labelBackgroundColor=default;endArrow=none;endFill=0;" parent="1" source="pjg-q-o6dQqwzu6WAslv-12" target="pjg-q-o6dQqwzu6WAslv-3" edge="1">
          <mxGeometry relative="1" as="geometry" />
        </mxCell>
        <mxCell id="pjg-q-o6dQqwzu6WAslv-12" value="id" style="ellipse;whiteSpace=wrap;html=1;align=center;fontSize=11;fontStyle=4" parent="1" vertex="1">
          <mxGeometry x="-39.51" y="350" width="80" height="30" as="geometry" />
        </mxCell>
        <mxCell id="kDe-1MHkGWwvt0b6MnKs-95" style="edgeStyle=orthogonalEdgeStyle;shape=connector;rounded=0;orthogonalLoop=1;jettySize=auto;html=1;exitX=0.5;exitY=1;exitDx=0;exitDy=0;entryX=0.5;entryY=0;entryDx=0;entryDy=0;strokeColor=default;align=center;verticalAlign=middle;fontFamily=Helvetica;fontSize=11;fontColor=default;labelBackgroundColor=default;endArrow=none;endFill=0;" parent="1" source="pjg-q-o6dQqwzu6WAslv-13" target="pjg-q-o6dQqwzu6WAslv-3" edge="1">
          <mxGeometry relative="1" as="geometry">
            <Array as="points">
              <mxPoint x="-84.5" y="390" />
              <mxPoint x="0.5" y="390" />
            </Array>
          </mxGeometry>
        </mxCell>
        <mxCell id="pjg-q-o6dQqwzu6WAslv-13" value="data" style="ellipse;whiteSpace=wrap;html=1;align=center;fontSize=11;" parent="1" vertex="1">
          <mxGeometry x="-124.5" y="350" width="80" height="30" as="geometry" />
        </mxCell>
        <mxCell id="kDe-1MHkGWwvt0b6MnKs-96" style="edgeStyle=orthogonalEdgeStyle;shape=connector;rounded=0;orthogonalLoop=1;jettySize=auto;html=1;exitX=0.5;exitY=1;exitDx=0;exitDy=0;entryX=0.5;entryY=0;entryDx=0;entryDy=0;strokeColor=default;align=center;verticalAlign=middle;fontFamily=Helvetica;fontSize=11;fontColor=default;labelBackgroundColor=default;endArrow=none;endFill=0;" parent="1" source="pjg-q-o6dQqwzu6WAslv-14" target="pjg-q-o6dQqwzu6WAslv-3" edge="1">
          <mxGeometry relative="1" as="geometry">
            <Array as="points">
              <mxPoint x="-169.5" y="390" />
              <mxPoint x="0.5" y="390" />
            </Array>
          </mxGeometry>
        </mxCell>
        <mxCell id="pjg-q-o6dQqwzu6WAslv-14" value="observacoes" style="ellipse;whiteSpace=wrap;html=1;align=center;fontSize=11;" parent="1" vertex="1">
          <mxGeometry x="-209.5" y="350" width="80" height="30" as="geometry" />
        </mxCell>
        <mxCell id="O_qhy4GaRmsFSzOgZT72-18" style="edgeStyle=orthogonalEdgeStyle;shape=connector;rounded=0;orthogonalLoop=1;jettySize=auto;html=1;exitX=0;exitY=0.5;exitDx=0;exitDy=0;entryX=1;entryY=0.5;entryDx=0;entryDy=0;strokeColor=default;align=center;verticalAlign=middle;fontFamily=Helvetica;fontSize=11;fontColor=default;labelBackgroundColor=default;endArrow=none;endFill=0;" parent="1" source="pjg-q-o6dQqwzu6WAslv-15" edge="1">
          <mxGeometry relative="1" as="geometry">
            <Array as="points">
              <mxPoint x="985" y="515" />
              <mxPoint x="985" y="480" />
            </Array>
            <mxPoint x="975" y="480" as="targetPoint" />
          </mxGeometry>
        </mxCell>
        <mxCell id="pjg-q-o6dQqwzu6WAslv-15" value="num_assento" style="ellipse;whiteSpace=wrap;html=1;align=center;fontSize=11;" parent="1" vertex="1">
          <mxGeometry x="1005" y="500" width="80" height="30" as="geometry" />
        </mxCell>
        <mxCell id="O_qhy4GaRmsFSzOgZT72-14" value="" style="edgeStyle=orthogonalEdgeStyle;shape=connector;rounded=0;orthogonalLoop=1;jettySize=auto;html=1;strokeColor=default;align=center;verticalAlign=middle;fontFamily=Helvetica;fontSize=11;fontColor=default;labelBackgroundColor=default;endArrow=none;endFill=0;" parent="1" source="pjg-q-o6dQqwzu6WAslv-17" edge="1">
          <mxGeometry relative="1" as="geometry">
            <mxPoint x="925" y="500" as="targetPoint" />
          </mxGeometry>
        </mxCell>
        <mxCell id="O_qhy4GaRmsFSzOgZT72-20" value="(N)" style="edgeLabel;html=1;align=center;verticalAlign=middle;resizable=0;points=[];fontFamily=Helvetica;fontSize=11;fontColor=default;labelBackgroundColor=default;" parent="O_qhy4GaRmsFSzOgZT72-14" vertex="1" connectable="0">
          <mxGeometry x="-0.015" y="1" relative="1" as="geometry">
            <mxPoint x="1" y="-1" as="offset" />
          </mxGeometry>
        </mxCell>
        <mxCell id="pjg-q-o6dQqwzu6WAslv-17" value="obtem" style="shape=rhombus;perimeter=rhombusPerimeter;whiteSpace=wrap;html=1;align=center;fontSize=10;" parent="1" vertex="1">
          <mxGeometry x="890" y="640" width="70" height="40" as="geometry" />
        </mxCell>
        <mxCell id="pjg-q-o6dQqwzu6WAslv-19" value="Portao" style="whiteSpace=wrap;html=1;align=center;" parent="1" vertex="1">
          <mxGeometry x="695" width="100" height="40" as="geometry" />
        </mxCell>
        <mxCell id="kDe-1MHkGWwvt0b6MnKs-100" value="" style="edgeStyle=orthogonalEdgeStyle;shape=connector;rounded=0;orthogonalLoop=1;jettySize=auto;html=1;strokeColor=default;align=center;verticalAlign=middle;fontFamily=Helvetica;fontSize=11;fontColor=default;labelBackgroundColor=default;endArrow=none;endFill=0;" parent="1" source="pjg-q-o6dQqwzu6WAslv-20" target="pjg-q-o6dQqwzu6WAslv-25" edge="1">
          <mxGeometry relative="1" as="geometry" />
        </mxCell>
        <mxCell id="pjg-q-o6dQqwzu6WAslv-20" value="Endereco" style="whiteSpace=wrap;html=1;align=center;" parent="1" vertex="1">
          <mxGeometry x="-430" y="200" width="100" height="40" as="geometry" />
        </mxCell>
        <mxCell id="llSJjnjl1L-JjQLvqV3q-12" style="edgeStyle=orthogonalEdgeStyle;shape=connector;rounded=0;orthogonalLoop=1;jettySize=auto;html=1;exitX=0;exitY=0.5;exitDx=0;exitDy=0;entryX=1;entryY=0.5;entryDx=0;entryDy=0;strokeColor=default;align=center;verticalAlign=middle;fontFamily=Helvetica;fontSize=11;fontColor=default;labelBackgroundColor=default;endArrow=none;endFill=0;" parent="1" source="pjg-q-o6dQqwzu6WAslv-21" target="pjg-q-o6dQqwzu6WAslv-19" edge="1">
          <mxGeometry relative="1" as="geometry">
            <Array as="points">
              <mxPoint x="810" y="-15" />
              <mxPoint x="810" y="20" />
            </Array>
          </mxGeometry>
        </mxCell>
        <mxCell id="pjg-q-o6dQqwzu6WAslv-21" value="id" style="ellipse;whiteSpace=wrap;html=1;align=center;fontSize=11;fontStyle=4" parent="1" vertex="1">
          <mxGeometry x="827" y="-30" width="80" height="30" as="geometry" />
        </mxCell>
        <mxCell id="kDe-1MHkGWwvt0b6MnKs-104" style="edgeStyle=orthogonalEdgeStyle;shape=connector;rounded=0;orthogonalLoop=1;jettySize=auto;html=1;exitX=1;exitY=0.5;exitDx=0;exitDy=0;strokeColor=default;align=center;verticalAlign=middle;fontFamily=Helvetica;fontSize=11;fontColor=default;labelBackgroundColor=default;endArrow=none;endFill=0;" parent="1" source="pjg-q-o6dQqwzu6WAslv-24" edge="1">
          <mxGeometry relative="1" as="geometry">
            <mxPoint x="-440" y="335" as="targetPoint" />
          </mxGeometry>
        </mxCell>
        <mxCell id="pjg-q-o6dQqwzu6WAslv-24" value="num" style="ellipse;whiteSpace=wrap;html=1;align=center;fontSize=11;" parent="1" vertex="1">
          <mxGeometry x="-530" y="320" width="80" height="30" as="geometry" />
        </mxCell>
        <mxCell id="pjg-q-o6dQqwzu6WAslv-25" value="id" style="ellipse;whiteSpace=wrap;html=1;align=center;fontSize=11;fontStyle=4" parent="1" vertex="1">
          <mxGeometry x="-530" y="205" width="80" height="30" as="geometry" />
        </mxCell>
        <mxCell id="kDe-1MHkGWwvt0b6MnKs-105" style="edgeStyle=orthogonalEdgeStyle;shape=connector;rounded=0;orthogonalLoop=1;jettySize=auto;html=1;exitX=1;exitY=0.5;exitDx=0;exitDy=0;strokeColor=default;align=center;verticalAlign=middle;fontFamily=Helvetica;fontSize=11;fontColor=default;labelBackgroundColor=default;endArrow=none;endFill=0;" parent="1" source="pjg-q-o6dQqwzu6WAslv-26" edge="1">
          <mxGeometry relative="1" as="geometry">
            <mxPoint x="-440" y="370.20000000000005" as="targetPoint" />
          </mxGeometry>
        </mxCell>
        <mxCell id="pjg-q-o6dQqwzu6WAslv-26" value="cidade" style="ellipse;whiteSpace=wrap;html=1;align=center;fontSize=11;" parent="1" vertex="1">
          <mxGeometry x="-530" y="355" width="80" height="30" as="geometry" />
        </mxCell>
        <mxCell id="kDe-1MHkGWwvt0b6MnKs-106" style="edgeStyle=orthogonalEdgeStyle;shape=connector;rounded=0;orthogonalLoop=1;jettySize=auto;html=1;exitX=1;exitY=0.5;exitDx=0;exitDy=0;strokeColor=default;align=center;verticalAlign=middle;fontFamily=Helvetica;fontSize=11;fontColor=default;labelBackgroundColor=default;endArrow=none;endFill=0;" parent="1" source="pjg-q-o6dQqwzu6WAslv-27" edge="1">
          <mxGeometry relative="1" as="geometry">
            <mxPoint x="-440" y="405" as="targetPoint" />
          </mxGeometry>
        </mxCell>
        <mxCell id="pjg-q-o6dQqwzu6WAslv-27" value="estado" style="ellipse;whiteSpace=wrap;html=1;align=center;fontSize=11;" parent="1" vertex="1">
          <mxGeometry x="-530" y="390" width="80" height="30" as="geometry" />
        </mxCell>
        <mxCell id="kDe-1MHkGWwvt0b6MnKs-103" style="edgeStyle=orthogonalEdgeStyle;shape=connector;rounded=0;orthogonalLoop=1;jettySize=auto;html=1;exitX=1;exitY=0.5;exitDx=0;exitDy=0;strokeColor=default;align=center;verticalAlign=middle;fontFamily=Helvetica;fontSize=11;fontColor=default;labelBackgroundColor=default;endArrow=none;endFill=0;" parent="1" source="pjg-q-o6dQqwzu6WAslv-28" edge="1">
          <mxGeometry relative="1" as="geometry">
            <mxPoint x="-440" y="295" as="targetPoint" />
          </mxGeometry>
        </mxCell>
        <mxCell id="pjg-q-o6dQqwzu6WAslv-28" value="bairro_setor" style="ellipse;whiteSpace=wrap;html=1;align=center;fontSize=11;" parent="1" vertex="1">
          <mxGeometry x="-530" y="280" width="80" height="30" as="geometry" />
        </mxCell>
        <mxCell id="kDe-1MHkGWwvt0b6MnKs-101" style="edgeStyle=orthogonalEdgeStyle;shape=connector;rounded=0;orthogonalLoop=1;jettySize=auto;html=1;exitX=1;exitY=0.5;exitDx=0;exitDy=0;entryX=0;entryY=0.5;entryDx=0;entryDy=0;strokeColor=default;align=center;verticalAlign=middle;fontFamily=Helvetica;fontSize=11;fontColor=default;labelBackgroundColor=default;endArrow=none;endFill=0;" parent="1" source="pjg-q-o6dQqwzu6WAslv-29" target="pjg-q-o6dQqwzu6WAslv-20" edge="1">
          <mxGeometry relative="1" as="geometry">
            <Array as="points">
              <mxPoint x="-440" y="475" />
              <mxPoint x="-440" y="220" />
            </Array>
          </mxGeometry>
        </mxCell>
        <mxCell id="pjg-q-o6dQqwzu6WAslv-29" value="CEP" style="ellipse;whiteSpace=wrap;html=1;align=center;fontSize=11;" parent="1" vertex="1">
          <mxGeometry x="-530" y="460" width="80" height="30" as="geometry" />
        </mxCell>
        <mxCell id="kDe-1MHkGWwvt0b6MnKs-102" style="edgeStyle=orthogonalEdgeStyle;shape=connector;rounded=0;orthogonalLoop=1;jettySize=auto;html=1;exitX=1;exitY=0.5;exitDx=0;exitDy=0;strokeColor=default;align=center;verticalAlign=middle;fontFamily=Helvetica;fontSize=11;fontColor=default;labelBackgroundColor=default;endArrow=none;endFill=0;" parent="1" source="pjg-q-o6dQqwzu6WAslv-30" edge="1">
          <mxGeometry relative="1" as="geometry">
            <mxPoint x="-440" y="255" as="targetPoint" />
          </mxGeometry>
        </mxCell>
        <mxCell id="pjg-q-o6dQqwzu6WAslv-30" value="logradouro" style="ellipse;whiteSpace=wrap;html=1;align=center;fontSize=11;" parent="1" vertex="1">
          <mxGeometry x="-530" y="240" width="80" height="30" as="geometry" />
        </mxCell>
        <mxCell id="kDe-1MHkGWwvt0b6MnKs-107" style="edgeStyle=orthogonalEdgeStyle;shape=connector;rounded=0;orthogonalLoop=1;jettySize=auto;html=1;exitX=1;exitY=0.5;exitDx=0;exitDy=0;strokeColor=default;align=center;verticalAlign=middle;fontFamily=Helvetica;fontSize=11;fontColor=default;labelBackgroundColor=default;endArrow=none;endFill=0;" parent="1" source="pjg-q-o6dQqwzu6WAslv-31" edge="1">
          <mxGeometry relative="1" as="geometry">
            <mxPoint x="-440" y="440.20000000000005" as="targetPoint" />
          </mxGeometry>
        </mxCell>
        <mxCell id="pjg-q-o6dQqwzu6WAslv-31" value="complemento" style="ellipse;whiteSpace=wrap;html=1;align=center;fontSize=11;" parent="1" vertex="1">
          <mxGeometry x="-530" y="425" width="80" height="30" as="geometry" />
        </mxCell>
        <mxCell id="pjg-q-o6dQqwzu6WAslv-79" value="" style="edgeStyle=orthogonalEdgeStyle;shape=connector;rounded=0;orthogonalLoop=1;jettySize=auto;html=1;strokeColor=default;align=center;verticalAlign=middle;fontFamily=Helvetica;fontSize=11;fontColor=default;labelBackgroundColor=default;endArrow=none;endFill=0;" parent="1" source="pjg-q-o6dQqwzu6WAslv-34" target="VFVIMdCbOXR8x4Mu5Sau-6" edge="1">
          <mxGeometry relative="1" as="geometry" />
        </mxCell>
        <mxCell id="kDe-1MHkGWwvt0b6MnKs-56" value="(1)" style="edgeLabel;html=1;align=center;verticalAlign=middle;resizable=0;points=[];fontFamily=Helvetica;fontSize=11;fontColor=default;labelBackgroundColor=default;" parent="pjg-q-o6dQqwzu6WAslv-79" vertex="1" connectable="0">
          <mxGeometry x="0.0078" relative="1" as="geometry">
            <mxPoint as="offset" />
          </mxGeometry>
        </mxCell>
        <mxCell id="pjg-q-o6dQqwzu6WAslv-80" value="" style="edgeStyle=orthogonalEdgeStyle;shape=connector;rounded=0;orthogonalLoop=1;jettySize=auto;html=1;strokeColor=default;align=center;verticalAlign=middle;fontFamily=Helvetica;fontSize=11;fontColor=default;labelBackgroundColor=default;endArrow=none;endFill=0;" parent="1" source="pjg-q-o6dQqwzu6WAslv-34" target="VFVIMdCbOXR8x4Mu5Sau-8" edge="1">
          <mxGeometry relative="1" as="geometry" />
        </mxCell>
        <mxCell id="kDe-1MHkGWwvt0b6MnKs-57" value="(N)" style="edgeLabel;html=1;align=center;verticalAlign=middle;resizable=0;points=[];fontFamily=Helvetica;fontSize=11;fontColor=default;labelBackgroundColor=default;" parent="pjg-q-o6dQqwzu6WAslv-80" vertex="1" connectable="0">
          <mxGeometry x="-0.0144" relative="1" as="geometry">
            <mxPoint as="offset" />
          </mxGeometry>
        </mxCell>
        <mxCell id="pjg-q-o6dQqwzu6WAslv-34" value="&lt;font style=&quot;font-size: 10px;&quot;&gt;fornece&lt;/font&gt;" style="shape=rhombus;perimeter=rhombusPerimeter;whiteSpace=wrap;html=1;align=center;fontSize=10;" parent="1" vertex="1">
          <mxGeometry x="44.99" y="260" width="70" height="40" as="geometry" />
        </mxCell>
        <mxCell id="pjg-q-o6dQqwzu6WAslv-68" style="edgeStyle=orthogonalEdgeStyle;shape=connector;rounded=0;orthogonalLoop=1;jettySize=auto;html=1;exitX=0.5;exitY=0;exitDx=0;exitDy=0;entryX=0.5;entryY=1;entryDx=0;entryDy=0;strokeColor=default;align=center;verticalAlign=middle;fontFamily=Helvetica;fontSize=11;fontColor=default;labelBackgroundColor=default;endArrow=none;endFill=0;" parent="1" source="pjg-q-o6dQqwzu6WAslv-66" target="pjg-q-o6dQqwzu6WAslv-19" edge="1">
          <mxGeometry relative="1" as="geometry" />
        </mxCell>
        <mxCell id="kDe-1MHkGWwvt0b6MnKs-53" value="(1)" style="edgeLabel;html=1;align=center;verticalAlign=middle;resizable=0;points=[];fontFamily=Helvetica;fontSize=11;fontColor=default;labelBackgroundColor=default;" parent="pjg-q-o6dQqwzu6WAslv-68" vertex="1" connectable="0">
          <mxGeometry x="-0.0049" relative="1" as="geometry">
            <mxPoint as="offset" />
          </mxGeometry>
        </mxCell>
        <mxCell id="pjg-q-o6dQqwzu6WAslv-66" value="&lt;font style=&quot;font-size: 10px;&quot;&gt;tem&lt;/font&gt;" style="shape=rhombus;perimeter=rhombusPerimeter;whiteSpace=wrap;html=1;align=center;fontSize=10;" parent="1" vertex="1">
          <mxGeometry x="710" y="100" width="70" height="40" as="geometry" />
        </mxCell>
        <mxCell id="pjg-q-o6dQqwzu6WAslv-78" value="" style="edgeStyle=orthogonalEdgeStyle;shape=connector;rounded=0;orthogonalLoop=1;jettySize=auto;html=1;strokeColor=default;align=center;verticalAlign=middle;fontFamily=Helvetica;fontSize=11;fontColor=default;labelBackgroundColor=default;endArrow=none;endFill=0;" parent="1" source="pjg-q-o6dQqwzu6WAslv-75" target="pjg-q-o6dQqwzu6WAslv-3" edge="1">
          <mxGeometry relative="1" as="geometry" />
        </mxCell>
        <mxCell id="kDe-1MHkGWwvt0b6MnKs-68" value="(N)" style="edgeLabel;html=1;align=center;verticalAlign=middle;resizable=0;points=[];fontFamily=Helvetica;fontSize=11;fontColor=default;labelBackgroundColor=default;" parent="pjg-q-o6dQqwzu6WAslv-78" vertex="1" connectable="0">
          <mxGeometry x="-0.0158" y="1" relative="1" as="geometry">
            <mxPoint as="offset" />
          </mxGeometry>
        </mxCell>
        <mxCell id="pjg-q-o6dQqwzu6WAslv-75" value="&lt;font style=&quot;font-size: 10px;&quot;&gt;realiza&lt;/font&gt;" style="shape=rhombus;perimeter=rhombusPerimeter;whiteSpace=wrap;html=1;align=center;fontSize=10;" parent="1" vertex="1">
          <mxGeometry x="-224.5" y="400" width="70" height="40" as="geometry" />
        </mxCell>
        <mxCell id="pjg-q-o6dQqwzu6WAslv-91" value="" style="edgeStyle=orthogonalEdgeStyle;shape=connector;rounded=0;orthogonalLoop=1;jettySize=auto;html=1;strokeColor=default;align=center;verticalAlign=middle;fontFamily=Helvetica;fontSize=11;fontColor=default;labelBackgroundColor=default;endArrow=none;endFill=0;entryX=1;entryY=0.75;entryDx=0;entryDy=0;" parent="1" source="pjg-q-o6dQqwzu6WAslv-81" target="pjg-q-o6dQqwzu6WAslv-20" edge="1">
          <mxGeometry relative="1" as="geometry" />
        </mxCell>
        <mxCell id="kDe-1MHkGWwvt0b6MnKs-54" value="(1)" style="edgeLabel;html=1;align=center;verticalAlign=middle;resizable=0;points=[];fontFamily=Helvetica;fontSize=11;fontColor=default;labelBackgroundColor=default;" parent="pjg-q-o6dQqwzu6WAslv-91" vertex="1" connectable="0">
          <mxGeometry x="0.0133" relative="1" as="geometry">
            <mxPoint as="offset" />
          </mxGeometry>
        </mxCell>
        <mxCell id="pjg-q-o6dQqwzu6WAslv-96" value="" style="edgeStyle=orthogonalEdgeStyle;shape=connector;rounded=0;orthogonalLoop=1;jettySize=auto;html=1;strokeColor=default;align=center;verticalAlign=middle;fontFamily=Helvetica;fontSize=11;fontColor=default;labelBackgroundColor=default;endArrow=none;endFill=0;" parent="1" source="pjg-q-o6dQqwzu6WAslv-81" target="VFVIMdCbOXR8x4Mu5Sau-6" edge="1">
          <mxGeometry relative="1" as="geometry" />
        </mxCell>
        <mxCell id="kDe-1MHkGWwvt0b6MnKs-55" value="(1)" style="edgeLabel;html=1;align=center;verticalAlign=middle;resizable=0;points=[];fontFamily=Helvetica;fontSize=11;fontColor=default;labelBackgroundColor=default;" parent="pjg-q-o6dQqwzu6WAslv-96" vertex="1" connectable="0">
          <mxGeometry relative="1" as="geometry">
            <mxPoint as="offset" />
          </mxGeometry>
        </mxCell>
        <mxCell id="pjg-q-o6dQqwzu6WAslv-81" value="tem" style="shape=rhombus;perimeter=rhombusPerimeter;whiteSpace=wrap;html=1;align=center;fontSize=10;" parent="1" vertex="1">
          <mxGeometry x="-280" y="260" width="70" height="40" as="geometry" />
        </mxCell>
        <mxCell id="pjg-q-o6dQqwzu6WAslv-95" value="" style="edgeStyle=orthogonalEdgeStyle;shape=connector;rounded=0;orthogonalLoop=1;jettySize=auto;html=1;strokeColor=default;align=center;verticalAlign=middle;fontFamily=Helvetica;fontSize=11;fontColor=default;labelBackgroundColor=default;endArrow=none;endFill=0;" parent="1" source="pjg-q-o6dQqwzu6WAslv-92" target="VFVIMdCbOXR8x4Mu5Sau-1" edge="1">
          <mxGeometry relative="1" as="geometry" />
        </mxCell>
        <mxCell id="kDe-1MHkGWwvt0b6MnKs-27" value="(1)" style="edgeLabel;html=1;align=center;verticalAlign=middle;resizable=0;points=[];fontFamily=Helvetica;fontSize=11;fontColor=default;labelBackgroundColor=default;" parent="pjg-q-o6dQqwzu6WAslv-95" vertex="1" connectable="0">
          <mxGeometry x="-0.04" y="-1" relative="1" as="geometry">
            <mxPoint x="1" y="-1" as="offset" />
          </mxGeometry>
        </mxCell>
        <mxCell id="kDe-1MHkGWwvt0b6MnKs-2" style="edgeStyle=orthogonalEdgeStyle;shape=connector;rounded=0;orthogonalLoop=1;jettySize=auto;html=1;exitX=0;exitY=0.5;exitDx=0;exitDy=0;entryX=1;entryY=0.25;entryDx=0;entryDy=0;strokeColor=default;align=center;verticalAlign=middle;fontFamily=Helvetica;fontSize=11;fontColor=default;labelBackgroundColor=default;endArrow=none;endFill=0;" parent="1" source="pjg-q-o6dQqwzu6WAslv-92" target="pjg-q-o6dQqwzu6WAslv-20" edge="1">
          <mxGeometry relative="1" as="geometry" />
        </mxCell>
        <mxCell id="kDe-1MHkGWwvt0b6MnKs-26" value="(1)" style="edgeLabel;html=1;align=center;verticalAlign=middle;resizable=0;points=[];fontFamily=Helvetica;fontSize=11;fontColor=default;labelBackgroundColor=default;" parent="kDe-1MHkGWwvt0b6MnKs-2" vertex="1" connectable="0">
          <mxGeometry x="-0.03" y="-1" relative="1" as="geometry">
            <mxPoint as="offset" />
          </mxGeometry>
        </mxCell>
        <mxCell id="pjg-q-o6dQqwzu6WAslv-92" value="&lt;font style=&quot;font-size: 10px;&quot;&gt;tem&lt;/font&gt;" style="shape=rhombus;perimeter=rhombusPerimeter;whiteSpace=wrap;html=1;align=center;fontSize=10;" parent="1" vertex="1">
          <mxGeometry x="-280" y="140" width="70" height="40" as="geometry" />
        </mxCell>
        <mxCell id="kDe-1MHkGWwvt0b6MnKs-21" style="edgeStyle=orthogonalEdgeStyle;shape=connector;rounded=0;orthogonalLoop=1;jettySize=auto;html=1;exitX=0.5;exitY=1;exitDx=0;exitDy=0;entryX=0.5;entryY=1;entryDx=0;entryDy=0;strokeColor=default;align=center;verticalAlign=middle;fontFamily=Helvetica;fontSize=11;fontColor=default;labelBackgroundColor=default;endArrow=none;endFill=0;" parent="1" source="kDe-1MHkGWwvt0b6MnKs-11" target="pjg-q-o6dQqwzu6WAslv-20" edge="1">
          <mxGeometry relative="1" as="geometry">
            <Array as="points">
              <mxPoint x="505" y="570" />
              <mxPoint x="-380" y="570" />
            </Array>
          </mxGeometry>
        </mxCell>
        <mxCell id="kDe-1MHkGWwvt0b6MnKs-41" value="(1)" style="edgeLabel;html=1;align=center;verticalAlign=middle;resizable=0;points=[];fontFamily=Helvetica;fontSize=11;fontColor=default;labelBackgroundColor=default;" parent="kDe-1MHkGWwvt0b6MnKs-21" vertex="1" connectable="0">
          <mxGeometry x="-0.8806" y="3" relative="1" as="geometry">
            <mxPoint x="9" y="-3" as="offset" />
          </mxGeometry>
        </mxCell>
        <mxCell id="kDe-1MHkGWwvt0b6MnKs-11" value="tem" style="shape=rhombus;perimeter=rhombusPerimeter;whiteSpace=wrap;html=1;align=center;fontSize=9;" parent="1" vertex="1">
          <mxGeometry x="470" y="500" width="70" height="40" as="geometry" />
        </mxCell>
        <mxCell id="kDe-1MHkGWwvt0b6MnKs-13" value="" style="edgeStyle=orthogonalEdgeStyle;shape=connector;rounded=0;orthogonalLoop=1;jettySize=auto;html=1;strokeColor=default;align=center;verticalAlign=middle;fontFamily=Helvetica;fontSize=11;fontColor=default;labelBackgroundColor=default;endArrow=none;endFill=0;" parent="1" source="kDe-1MHkGWwvt0b6MnKs-12" target="VFVIMdCbOXR8x4Mu5Sau-14" edge="1">
          <mxGeometry relative="1" as="geometry" />
        </mxCell>
        <mxCell id="kDe-1MHkGWwvt0b6MnKs-65" value="(1)" style="edgeLabel;html=1;align=center;verticalAlign=middle;resizable=0;points=[];fontFamily=Helvetica;fontSize=11;fontColor=default;labelBackgroundColor=default;" parent="kDe-1MHkGWwvt0b6MnKs-13" vertex="1" connectable="0">
          <mxGeometry x="-0.0333" y="1" relative="1" as="geometry">
            <mxPoint as="offset" />
          </mxGeometry>
        </mxCell>
        <mxCell id="kDe-1MHkGWwvt0b6MnKs-14" style="edgeStyle=orthogonalEdgeStyle;shape=connector;rounded=0;orthogonalLoop=1;jettySize=auto;html=1;exitX=0.5;exitY=0;exitDx=0;exitDy=0;entryX=0.75;entryY=1;entryDx=0;entryDy=0;strokeColor=default;align=center;verticalAlign=middle;fontFamily=Helvetica;fontSize=11;fontColor=default;labelBackgroundColor=default;endArrow=none;endFill=0;" parent="1" source="kDe-1MHkGWwvt0b6MnKs-12" target="pjg-q-o6dQqwzu6WAslv-20" edge="1">
          <mxGeometry relative="1" as="geometry" />
        </mxCell>
        <mxCell id="kDe-1MHkGWwvt0b6MnKs-63" value="(1)" style="edgeLabel;html=1;align=center;verticalAlign=middle;resizable=0;points=[];fontFamily=Helvetica;fontSize=11;fontColor=default;labelBackgroundColor=default;" parent="kDe-1MHkGWwvt0b6MnKs-14" vertex="1" connectable="0">
          <mxGeometry x="-0.7786" y="1" relative="1" as="geometry">
            <mxPoint x="1" y="-15" as="offset" />
          </mxGeometry>
        </mxCell>
        <mxCell id="kDe-1MHkGWwvt0b6MnKs-12" value="tem" style="shape=rhombus;perimeter=rhombusPerimeter;whiteSpace=wrap;html=1;align=center;fontSize=9;" parent="1" vertex="1">
          <mxGeometry x="-359.5" y="480" width="70" height="40" as="geometry" />
        </mxCell>
        <mxCell id="kDe-1MHkGWwvt0b6MnKs-25" style="edgeStyle=orthogonalEdgeStyle;shape=connector;rounded=0;orthogonalLoop=1;jettySize=auto;html=1;exitX=0;exitY=0.5;exitDx=0;exitDy=0;entryX=0.25;entryY=1;entryDx=0;entryDy=0;strokeColor=default;align=center;verticalAlign=middle;fontFamily=Helvetica;fontSize=11;fontColor=default;labelBackgroundColor=default;endArrow=none;endFill=0;" parent="1" source="kDe-1MHkGWwvt0b6MnKs-22" target="pjg-q-o6dQqwzu6WAslv-20" edge="1">
          <mxGeometry relative="1" as="geometry" />
        </mxCell>
        <mxCell id="kDe-1MHkGWwvt0b6MnKs-44" value="(1)" style="edgeLabel;html=1;align=center;verticalAlign=middle;resizable=0;points=[];fontFamily=Helvetica;fontSize=11;fontColor=default;labelBackgroundColor=default;" parent="kDe-1MHkGWwvt0b6MnKs-25" vertex="1" connectable="0">
          <mxGeometry x="-0.9463" relative="1" as="geometry">
            <mxPoint x="1" as="offset" />
          </mxGeometry>
        </mxCell>
        <mxCell id="kDe-1MHkGWwvt0b6MnKs-22" value="tem" style="shape=rhombus;perimeter=rhombusPerimeter;whiteSpace=wrap;html=1;align=center;fontSize=9;" parent="1" vertex="1">
          <mxGeometry x="380" y="640" width="70" height="40" as="geometry" />
        </mxCell>
        <mxCell id="kDe-1MHkGWwvt0b6MnKs-83" value="data_nasc" style="ellipse;whiteSpace=wrap;html=1;align=center;fontSize=11;" parent="1" vertex="1">
          <mxGeometry x="35.489999999999995" y="520" width="80" height="30" as="geometry" />
        </mxCell>
        <mxCell id="kDe-1MHkGWwvt0b6MnKs-121" style="edgeStyle=orthogonalEdgeStyle;shape=connector;rounded=0;orthogonalLoop=1;jettySize=auto;html=1;exitX=1;exitY=0.5;exitDx=0;exitDy=0;strokeColor=default;align=center;verticalAlign=middle;fontFamily=Helvetica;fontSize=11;fontColor=default;labelBackgroundColor=default;endArrow=none;endFill=0;" parent="1" source="kDe-1MHkGWwvt0b6MnKs-120" target="VFVIMdCbOXR8x4Mu5Sau-15" edge="1">
          <mxGeometry relative="1" as="geometry">
            <Array as="points">
              <mxPoint x="480" y="505" />
              <mxPoint x="480" y="420" />
            </Array>
          </mxGeometry>
        </mxCell>
        <mxCell id="kDe-1MHkGWwvt0b6MnKs-120" value="nacionalidade" style="ellipse;whiteSpace=wrap;html=1;align=center;fontSize=11;" parent="1" vertex="1">
          <mxGeometry x="390" y="490" width="80" height="30" as="geometry" />
        </mxCell>
        <mxCell id="llSJjnjl1L-JjQLvqV3q-24" style="edgeStyle=orthogonalEdgeStyle;shape=connector;rounded=0;orthogonalLoop=1;jettySize=auto;html=1;exitX=0.5;exitY=0;exitDx=0;exitDy=0;entryX=0.5;entryY=1;entryDx=0;entryDy=0;strokeColor=default;align=center;verticalAlign=middle;fontFamily=Helvetica;fontSize=11;fontColor=default;labelBackgroundColor=default;endArrow=none;endFill=0;" parent="1" source="kDe-1MHkGWwvt0b6MnKs-122" target="VFVIMdCbOXR8x4Mu5Sau-7" edge="1">
          <mxGeometry relative="1" as="geometry">
            <Array as="points">
              <mxPoint x="685" y="700" />
              <mxPoint x="550" y="700" />
            </Array>
          </mxGeometry>
        </mxCell>
        <mxCell id="kDe-1MHkGWwvt0b6MnKs-122" value="data_nasc" style="ellipse;whiteSpace=wrap;html=1;align=center;fontSize=11;" parent="1" vertex="1">
          <mxGeometry x="645" y="710" width="80" height="30" as="geometry" />
        </mxCell>
        <mxCell id="kDe-1MHkGWwvt0b6MnKs-128" value="" style="edgeStyle=orthogonalEdgeStyle;shape=connector;rounded=0;orthogonalLoop=1;jettySize=auto;html=1;exitX=1;exitY=0.5;exitDx=0;exitDy=0;strokeColor=default;align=center;verticalAlign=middle;fontFamily=Helvetica;fontSize=11;fontColor=default;labelBackgroundColor=default;endArrow=none;endFill=0;" parent="1" source="VFVIMdCbOXR8x4Mu5Sau-5" target="VFVIMdCbOXR8x4Mu5Sau-130" edge="1">
          <mxGeometry relative="1" as="geometry">
            <mxPoint x="730" y="220" as="sourcePoint" />
            <mxPoint x="850" y="200" as="targetPoint" />
            <Array as="points" />
          </mxGeometry>
        </mxCell>
        <mxCell id="VFVIMdCbOXR8x4Mu5Sau-130" value="condicao_voo" style="ellipse;whiteSpace=wrap;html=1;align=center;fontSize=11;" parent="1" vertex="1">
          <mxGeometry x="810" y="205" width="80" height="30" as="geometry" />
        </mxCell>
        <mxCell id="SXHeSPfVGefWCoJjLTRm-3" value="" style="edgeStyle=orthogonalEdgeStyle;shape=connector;rounded=0;orthogonalLoop=1;jettySize=auto;html=1;strokeColor=default;align=center;verticalAlign=middle;fontFamily=Helvetica;fontSize=11;fontColor=default;labelBackgroundColor=default;startFill=0;endArrow=none;" parent="1" source="kDe-1MHkGWwvt0b6MnKs-134" target="VFVIMdCbOXR8x4Mu5Sau-12" edge="1">
          <mxGeometry relative="1" as="geometry" />
        </mxCell>
        <mxCell id="kDe-1MHkGWwvt0b6MnKs-134" value="id" style="ellipse;whiteSpace=wrap;html=1;align=center;fontSize=11;fontStyle=4" parent="1" vertex="1">
          <mxGeometry x="440" y="2.5" width="80" height="30" as="geometry" />
        </mxCell>
        <mxCell id="ej8KAwrQizuk1CulCsTu-1" value="id" style="ellipse;whiteSpace=wrap;html=1;align=center;fontSize=11;fontStyle=4" parent="1" vertex="1">
          <mxGeometry x="1005" y="465" width="80" height="30" as="geometry" />
        </mxCell>
        <mxCell id="ej8KAwrQizuk1CulCsTu-9" value="largura" style="ellipse;whiteSpace=wrap;html=1;align=center;fontSize=11;" parent="1" vertex="1">
          <mxGeometry x="125.00000000000001" y="-52.5" width="80" height="30" as="geometry" />
        </mxCell>
        <mxCell id="ej8KAwrQizuk1CulCsTu-17" style="edgeStyle=orthogonalEdgeStyle;shape=connector;rounded=0;orthogonalLoop=1;jettySize=auto;html=1;exitX=0.5;exitY=1;exitDx=0;exitDy=0;entryX=0.5;entryY=0;entryDx=0;entryDy=0;strokeColor=default;align=center;verticalAlign=middle;fontFamily=Helvetica;fontSize=11;fontColor=default;labelBackgroundColor=default;endArrow=none;endFill=0;" parent="1" source="ej8KAwrQizuk1CulCsTu-10" target="VFVIMdCbOXR8x4Mu5Sau-11" edge="1">
          <mxGeometry relative="1" as="geometry">
            <Array as="points">
              <mxPoint x="-90" y="-10" />
              <mxPoint x="80" y="-10" />
            </Array>
          </mxGeometry>
        </mxCell>
        <mxCell id="ej8KAwrQizuk1CulCsTu-10" value="orientacao" style="ellipse;whiteSpace=wrap;html=1;align=center;fontSize=11;" parent="1" vertex="1">
          <mxGeometry x="-130" y="-52.5" width="80" height="30" as="geometry" />
        </mxCell>
        <mxCell id="ej8KAwrQizuk1CulCsTu-18" style="edgeStyle=orthogonalEdgeStyle;shape=connector;rounded=0;orthogonalLoop=1;jettySize=auto;html=1;exitX=0.5;exitY=1;exitDx=0;exitDy=0;entryX=0.5;entryY=0;entryDx=0;entryDy=0;strokeColor=default;align=center;verticalAlign=middle;fontFamily=Helvetica;fontSize=11;fontColor=default;labelBackgroundColor=default;endArrow=none;endFill=0;" parent="1" source="ej8KAwrQizuk1CulCsTu-11" target="VFVIMdCbOXR8x4Mu5Sau-11" edge="1">
          <mxGeometry relative="1" as="geometry">
            <Array as="points">
              <mxPoint x="-5" y="-10" />
              <mxPoint x="80" y="-10" />
            </Array>
          </mxGeometry>
        </mxCell>
        <mxCell id="ej8KAwrQizuk1CulCsTu-11" value="data_criacao" style="ellipse;whiteSpace=wrap;html=1;align=center;fontSize=11;" parent="1" vertex="1">
          <mxGeometry x="-45" y="-52.5" width="80" height="30" as="geometry" />
        </mxCell>
        <mxCell id="ej8KAwrQizuk1CulCsTu-13" style="edgeStyle=orthogonalEdgeStyle;shape=connector;rounded=0;orthogonalLoop=1;jettySize=auto;html=1;exitX=1;exitY=0.5;exitDx=0;exitDy=0;entryX=0;entryY=0.5;entryDx=0;entryDy=0;strokeColor=default;align=center;verticalAlign=middle;fontFamily=Helvetica;fontSize=11;fontColor=default;labelBackgroundColor=default;endArrow=none;endFill=0;" parent="1" source="ej8KAwrQizuk1CulCsTu-12" target="VFVIMdCbOXR8x4Mu5Sau-94" edge="1">
          <mxGeometry relative="1" as="geometry" />
        </mxCell>
        <mxCell id="ej8KAwrQizuk1CulCsTu-15" value="(1)" style="edgeLabel;html=1;align=center;verticalAlign=middle;resizable=0;points=[];fontFamily=Helvetica;fontSize=11;fontColor=default;labelBackgroundColor=default;" parent="ej8KAwrQizuk1CulCsTu-13" vertex="1" connectable="0">
          <mxGeometry x="-0.008" relative="1" as="geometry">
            <mxPoint as="offset" />
          </mxGeometry>
        </mxCell>
        <mxCell id="O_qhy4GaRmsFSzOgZT72-3" style="edgeStyle=orthogonalEdgeStyle;rounded=0;orthogonalLoop=1;jettySize=auto;html=1;exitX=0;exitY=0.5;exitDx=0;exitDy=0;entryX=1;entryY=0.5;entryDx=0;entryDy=0;endArrow=none;endFill=0;" parent="1" source="ej8KAwrQizuk1CulCsTu-12" target="ej8KAwrQizuk1CulCsTu-26" edge="1">
          <mxGeometry relative="1" as="geometry">
            <Array as="points">
              <mxPoint x="220" y="160" />
              <mxPoint x="220" y="175" />
            </Array>
          </mxGeometry>
        </mxCell>
        <mxCell id="ej8KAwrQizuk1CulCsTu-12" value="Cabeceira" style="whiteSpace=wrap;html=1;align=center;" parent="1" vertex="1">
          <mxGeometry x="230" y="140" width="100" height="40" as="geometry" />
        </mxCell>
        <mxCell id="ej8KAwrQizuk1CulCsTu-25" value="" style="edgeStyle=orthogonalEdgeStyle;shape=connector;rounded=0;orthogonalLoop=1;jettySize=auto;html=1;strokeColor=default;align=center;verticalAlign=middle;fontFamily=Helvetica;fontSize=11;fontColor=default;labelBackgroundColor=default;endArrow=none;endFill=0;" parent="1" source="ej8KAwrQizuk1CulCsTu-23" target="ej8KAwrQizuk1CulCsTu-12" edge="1">
          <mxGeometry relative="1" as="geometry" />
        </mxCell>
        <mxCell id="ej8KAwrQizuk1CulCsTu-31" value="(N)" style="edgeLabel;html=1;align=center;verticalAlign=middle;resizable=0;points=[];fontFamily=Helvetica;fontSize=11;fontColor=default;labelBackgroundColor=default;" parent="ej8KAwrQizuk1CulCsTu-25" vertex="1" connectable="0">
          <mxGeometry x="-0.012" relative="1" as="geometry">
            <mxPoint as="offset" />
          </mxGeometry>
        </mxCell>
        <mxCell id="ej8KAwrQizuk1CulCsTu-23" value="&lt;font style=&quot;font-size: 10px;&quot;&gt;possui&lt;/font&gt;" style="shape=rhombus;perimeter=rhombusPerimeter;whiteSpace=wrap;html=1;align=center;fontSize=10;" parent="1" vertex="1">
          <mxGeometry x="245" width="70" height="40" as="geometry" />
        </mxCell>
        <mxCell id="ej8KAwrQizuk1CulCsTu-26" value="id" style="ellipse;whiteSpace=wrap;html=1;align=center;fontSize=11;fontStyle=4" parent="1" vertex="1">
          <mxGeometry x="125.00000000000001" y="160" width="80" height="30" as="geometry" />
        </mxCell>
        <mxCell id="ej8KAwrQizuk1CulCsTu-29" style="edgeStyle=orthogonalEdgeStyle;shape=connector;rounded=0;orthogonalLoop=1;jettySize=auto;html=1;exitX=1;exitY=0.5;exitDx=0;exitDy=0;strokeColor=default;align=center;verticalAlign=middle;fontFamily=Helvetica;fontSize=11;fontColor=default;labelBackgroundColor=default;endArrow=none;endFill=0;" parent="1" source="ej8KAwrQizuk1CulCsTu-28" target="ej8KAwrQizuk1CulCsTu-12" edge="1">
          <mxGeometry relative="1" as="geometry">
            <Array as="points">
              <mxPoint x="220" y="135" />
              <mxPoint x="220" y="160" />
            </Array>
          </mxGeometry>
        </mxCell>
        <mxCell id="ej8KAwrQizuk1CulCsTu-28" value="status" style="ellipse;whiteSpace=wrap;html=1;align=center;fontSize=11;" parent="1" vertex="1">
          <mxGeometry x="125" y="120" width="80" height="30" as="geometry" />
        </mxCell>
        <mxCell id="OotWGyNmuN1GMTL397Em-4" style="edgeStyle=orthogonalEdgeStyle;shape=connector;rounded=0;orthogonalLoop=1;jettySize=auto;html=1;exitX=1;exitY=0.5;exitDx=0;exitDy=0;strokeColor=default;align=center;verticalAlign=middle;fontFamily=Helvetica;fontSize=11;fontColor=default;labelBackgroundColor=default;endArrow=none;endFill=0;" parent="1" source="OotWGyNmuN1GMTL397Em-1" edge="1">
          <mxGeometry relative="1" as="geometry">
            <mxPoint x="-440" y="515.0322580645161" as="targetPoint" />
          </mxGeometry>
        </mxCell>
        <mxCell id="OotWGyNmuN1GMTL397Em-1" value="lote" style="ellipse;whiteSpace=wrap;html=1;align=center;fontSize=11;" parent="1" vertex="1">
          <mxGeometry x="-530" y="500" width="80" height="30" as="geometry" />
        </mxCell>
        <mxCell id="OotWGyNmuN1GMTL397Em-3" style="edgeStyle=orthogonalEdgeStyle;rounded=0;orthogonalLoop=1;jettySize=auto;html=1;exitX=1;exitY=0.5;exitDx=0;exitDy=0;endArrow=none;endFill=0;" parent="1" source="OotWGyNmuN1GMTL397Em-2" edge="1">
          <mxGeometry relative="1" as="geometry">
            <mxPoint x="-440" y="470.0000000000002" as="targetPoint" />
            <Array as="points">
              <mxPoint x="-440" y="555" />
            </Array>
          </mxGeometry>
        </mxCell>
        <mxCell id="OotWGyNmuN1GMTL397Em-2" value="quadra" style="ellipse;whiteSpace=wrap;html=1;align=center;fontSize=11;" parent="1" vertex="1">
          <mxGeometry x="-530" y="540" width="80" height="30" as="geometry" />
        </mxCell>
        <mxCell id="OotWGyNmuN1GMTL397Em-7" style="edgeStyle=orthogonalEdgeStyle;shape=connector;rounded=0;orthogonalLoop=1;jettySize=auto;html=1;exitX=0.5;exitY=1;exitDx=0;exitDy=0;strokeColor=default;align=center;verticalAlign=middle;fontFamily=Helvetica;fontSize=11;fontColor=default;labelBackgroundColor=default;endArrow=none;endFill=0;" parent="1" source="OotWGyNmuN1GMTL397Em-5" edge="1">
          <mxGeometry relative="1" as="geometry">
            <mxPoint x="-169.5" y="390" as="targetPoint" />
            <Array as="points">
              <mxPoint x="-264.5" y="390" />
            </Array>
          </mxGeometry>
        </mxCell>
        <mxCell id="OotWGyNmuN1GMTL397Em-5" value="hora" style="ellipse;whiteSpace=wrap;html=1;align=center;fontSize=11;" parent="1" vertex="1">
          <mxGeometry x="-304.5" y="350" width="80" height="30" as="geometry" />
        </mxCell>
        <mxCell id="OotWGyNmuN1GMTL397Em-10" style="edgeStyle=orthogonalEdgeStyle;shape=connector;rounded=0;orthogonalLoop=1;jettySize=auto;html=1;exitX=0;exitY=0.5;exitDx=0;exitDy=0;strokeColor=default;align=center;verticalAlign=middle;fontFamily=Helvetica;fontSize=11;fontColor=default;labelBackgroundColor=default;endArrow=none;endFill=0;" parent="1" source="OotWGyNmuN1GMTL397Em-8" edge="1">
          <mxGeometry relative="1" as="geometry">
            <mxPoint x="790" y="220" as="targetPoint" />
          </mxGeometry>
        </mxCell>
        <mxCell id="OotWGyNmuN1GMTL397Em-8" value="data_chegada" style="ellipse;whiteSpace=wrap;html=1;align=center;fontSize=11;" parent="1" vertex="1">
          <mxGeometry x="810" y="240" width="80" height="30" as="geometry" />
        </mxCell>
        <mxCell id="OotWGyNmuN1GMTL397Em-11" style="edgeStyle=orthogonalEdgeStyle;shape=connector;rounded=0;orthogonalLoop=1;jettySize=auto;html=1;exitX=0;exitY=0.5;exitDx=0;exitDy=0;strokeColor=default;align=center;verticalAlign=middle;fontFamily=Helvetica;fontSize=11;fontColor=default;labelBackgroundColor=default;endArrow=none;endFill=0;" parent="1" source="OotWGyNmuN1GMTL397Em-9" edge="1">
          <mxGeometry relative="1" as="geometry">
            <mxPoint x="790" y="250" as="targetPoint" />
          </mxGeometry>
        </mxCell>
        <mxCell id="OotWGyNmuN1GMTL397Em-9" value="data_partida" style="ellipse;whiteSpace=wrap;html=1;align=center;fontSize=11;" parent="1" vertex="1">
          <mxGeometry x="810" y="280" width="80" height="30" as="geometry" />
        </mxCell>
        <mxCell id="OotWGyNmuN1GMTL397Em-15" style="edgeStyle=orthogonalEdgeStyle;shape=connector;rounded=0;orthogonalLoop=1;jettySize=auto;html=1;exitX=1;exitY=0.5;exitDx=0;exitDy=0;entryX=0;entryY=0.5;entryDx=0;entryDy=0;strokeColor=default;align=center;verticalAlign=middle;fontFamily=Helvetica;fontSize=11;fontColor=default;labelBackgroundColor=default;endArrow=none;endFill=0;" parent="1" source="OotWGyNmuN1GMTL397Em-14" target="ej8KAwrQizuk1CulCsTu-12" edge="1">
          <mxGeometry relative="1" as="geometry">
            <Array as="points">
              <mxPoint x="220" y="215" />
              <mxPoint x="220" y="160" />
            </Array>
          </mxGeometry>
        </mxCell>
        <mxCell id="OotWGyNmuN1GMTL397Em-14" value="orientacao" style="ellipse;whiteSpace=wrap;html=1;align=center;fontSize=11;" parent="1" vertex="1">
          <mxGeometry x="125" y="200" width="80" height="30" as="geometry" />
        </mxCell>
        <mxCell id="O_qhy4GaRmsFSzOgZT72-4" style="edgeStyle=orthogonalEdgeStyle;shape=connector;rounded=0;orthogonalLoop=1;jettySize=auto;html=1;exitX=1;exitY=0.5;exitDx=0;exitDy=0;strokeColor=default;align=center;verticalAlign=middle;fontFamily=Helvetica;fontSize=11;fontColor=default;labelBackgroundColor=default;endArrow=none;endFill=0;" parent="1" source="OotWGyNmuN1GMTL397Em-16" edge="1">
          <mxGeometry relative="1" as="geometry">
            <mxPoint x="230" y="160" as="targetPoint" />
            <Array as="points">
              <mxPoint x="220" y="95" />
              <mxPoint x="220" y="160" />
            </Array>
          </mxGeometry>
        </mxCell>
        <mxCell id="OotWGyNmuN1GMTL397Em-16" value="latitude" style="ellipse;whiteSpace=wrap;html=1;align=center;fontSize=11;" parent="1" vertex="1">
          <mxGeometry x="125" y="80" width="80" height="30" as="geometry" />
        </mxCell>
        <mxCell id="O_qhy4GaRmsFSzOgZT72-7" style="edgeStyle=orthogonalEdgeStyle;shape=connector;rounded=0;orthogonalLoop=1;jettySize=auto;html=1;exitX=1;exitY=0.5;exitDx=0;exitDy=0;strokeColor=default;align=center;verticalAlign=middle;fontFamily=Helvetica;fontSize=11;fontColor=default;labelBackgroundColor=default;endArrow=none;endFill=0;" parent="1" source="OotWGyNmuN1GMTL397Em-18" edge="1">
          <mxGeometry relative="1" as="geometry">
            <mxPoint x="220" y="120" as="targetPoint" />
            <Array as="points">
              <mxPoint x="220" y="55" />
            </Array>
          </mxGeometry>
        </mxCell>
        <mxCell id="OotWGyNmuN1GMTL397Em-18" value="longitude" style="ellipse;whiteSpace=wrap;html=1;align=center;fontSize=11;" parent="1" vertex="1">
          <mxGeometry x="125" y="40" width="80" height="30" as="geometry" />
        </mxCell>
        <mxCell id="OotWGyNmuN1GMTL397Em-21" style="edgeStyle=orthogonalEdgeStyle;shape=connector;rounded=0;orthogonalLoop=1;jettySize=auto;html=1;exitX=1;exitY=0.5;exitDx=0;exitDy=0;entryX=0;entryY=0.5;entryDx=0;entryDy=0;strokeColor=default;align=center;verticalAlign=middle;fontFamily=Helvetica;fontSize=11;fontColor=default;labelBackgroundColor=default;endArrow=none;endFill=0;" parent="1" source="OotWGyNmuN1GMTL397Em-20" target="ej8KAwrQizuk1CulCsTu-12" edge="1">
          <mxGeometry relative="1" as="geometry">
            <Array as="points">
              <mxPoint x="220" y="250" />
              <mxPoint x="220" y="160" />
            </Array>
          </mxGeometry>
        </mxCell>
        <mxCell id="OotWGyNmuN1GMTL397Em-20" value="designacao" style="ellipse;whiteSpace=wrap;html=1;align=center;fontSize=11;" parent="1" vertex="1">
          <mxGeometry x="125.00000000000001" y="235" width="80" height="30" as="geometry" />
        </mxCell>
        <mxCell id="OotWGyNmuN1GMTL397Em-24" style="edgeStyle=orthogonalEdgeStyle;shape=connector;rounded=0;orthogonalLoop=1;jettySize=auto;html=1;exitX=0.5;exitY=1;exitDx=0;exitDy=0;entryX=0.5;entryY=0;entryDx=0;entryDy=0;strokeColor=default;align=center;verticalAlign=middle;fontFamily=Helvetica;fontSize=11;fontColor=default;labelBackgroundColor=default;endArrow=none;endFill=0;" parent="1" source="OotWGyNmuN1GMTL397Em-23" target="VFVIMdCbOXR8x4Mu5Sau-6" edge="1">
          <mxGeometry relative="1" as="geometry">
            <Array as="points">
              <mxPoint x="-200" y="250" />
              <mxPoint x="-110" y="250" />
            </Array>
          </mxGeometry>
        </mxCell>
        <mxCell id="OotWGyNmuN1GMTL397Em-23" value="razao_social" style="ellipse;whiteSpace=wrap;html=1;align=center;fontSize=11;" parent="1" vertex="1">
          <mxGeometry x="-240" y="210" width="80" height="30" as="geometry" />
        </mxCell>
        <mxCell id="OotWGyNmuN1GMTL397Em-26" style="edgeStyle=orthogonalEdgeStyle;shape=connector;rounded=0;orthogonalLoop=1;jettySize=auto;html=1;exitX=0.5;exitY=1;exitDx=0;exitDy=0;entryX=0.5;entryY=0;entryDx=0;entryDy=0;strokeColor=default;align=center;verticalAlign=middle;fontFamily=Helvetica;fontSize=11;fontColor=default;labelBackgroundColor=default;endArrow=none;endFill=0;" parent="1" source="OotWGyNmuN1GMTL397Em-25" target="VFVIMdCbOXR8x4Mu5Sau-1" edge="1">
          <mxGeometry relative="1" as="geometry">
            <Array as="points">
              <mxPoint x="-200" y="130" />
              <mxPoint x="-110" y="130" />
            </Array>
          </mxGeometry>
        </mxCell>
        <mxCell id="OotWGyNmuN1GMTL397Em-25" value="razao_social" style="ellipse;whiteSpace=wrap;html=1;align=center;fontSize=11;" parent="1" vertex="1">
          <mxGeometry x="-240" y="90" width="80" height="30" as="geometry" />
        </mxCell>
        <mxCell id="llSJjnjl1L-JjQLvqV3q-11" style="edgeStyle=orthogonalEdgeStyle;shape=connector;rounded=0;orthogonalLoop=1;jettySize=auto;html=1;exitX=0;exitY=0.5;exitDx=0;exitDy=0;entryX=1;entryY=0.5;entryDx=0;entryDy=0;strokeColor=default;align=center;verticalAlign=middle;fontFamily=Helvetica;fontSize=11;fontColor=default;labelBackgroundColor=default;endArrow=none;endFill=0;" parent="1" source="OotWGyNmuN1GMTL397Em-27" target="pjg-q-o6dQqwzu6WAslv-19" edge="1">
          <mxGeometry relative="1" as="geometry">
            <Array as="points">
              <mxPoint x="810" y="55" />
              <mxPoint x="810" y="20" />
            </Array>
          </mxGeometry>
        </mxCell>
        <mxCell id="OotWGyNmuN1GMTL397Em-27" value="status" style="ellipse;whiteSpace=wrap;html=1;align=center;fontSize=11;" parent="1" vertex="1">
          <mxGeometry x="827" y="40" width="80" height="30" as="geometry" />
        </mxCell>
        <mxCell id="OotWGyNmuN1GMTL397Em-49" style="edgeStyle=orthogonalEdgeStyle;shape=connector;rounded=0;orthogonalLoop=1;jettySize=auto;html=1;exitX=0.5;exitY=0;exitDx=0;exitDy=0;entryX=1;entryY=0.5;entryDx=0;entryDy=0;strokeColor=default;align=center;verticalAlign=middle;fontFamily=Helvetica;fontSize=11;fontColor=default;labelBackgroundColor=default;endArrow=none;endFill=0;" parent="1" source="OotWGyNmuN1GMTL397Em-48" target="VFVIMdCbOXR8x4Mu5Sau-14" edge="1">
          <mxGeometry relative="1" as="geometry" />
        </mxCell>
        <mxCell id="OotWGyNmuN1GMTL397Em-48" value="email" style="ellipse;whiteSpace=wrap;html=1;align=center;fontSize=11;" parent="1" vertex="1">
          <mxGeometry x="120.5" y="520" width="80" height="30" as="geometry" />
        </mxCell>
        <mxCell id="O_qhy4GaRmsFSzOgZT72-2" style="edgeStyle=orthogonalEdgeStyle;rounded=0;orthogonalLoop=1;jettySize=auto;html=1;exitX=0.5;exitY=1;exitDx=0;exitDy=0;entryX=0.5;entryY=0;entryDx=0;entryDy=0;endArrow=none;endFill=0;" parent="1" source="O_qhy4GaRmsFSzOgZT72-1" target="VFVIMdCbOXR8x4Mu5Sau-11" edge="1">
          <mxGeometry relative="1" as="geometry">
            <Array as="points">
              <mxPoint x="-180" y="-10" />
              <mxPoint x="80" y="-10" />
            </Array>
          </mxGeometry>
        </mxCell>
        <mxCell id="O_qhy4GaRmsFSzOgZT72-1" value="status" style="ellipse;whiteSpace=wrap;html=1;align=center;fontSize=11;" parent="1" vertex="1">
          <mxGeometry x="-220" y="-52.5" width="80" height="30" as="geometry" />
        </mxCell>
        <mxCell id="O_qhy4GaRmsFSzOgZT72-19" style="edgeStyle=orthogonalEdgeStyle;shape=connector;rounded=0;orthogonalLoop=1;jettySize=auto;html=1;exitX=0;exitY=0.5;exitDx=0;exitDy=0;entryX=1;entryY=0.5;entryDx=0;entryDy=0;strokeColor=default;align=center;verticalAlign=middle;fontFamily=Helvetica;fontSize=11;fontColor=default;labelBackgroundColor=default;endArrow=none;endFill=0;" parent="1" source="O_qhy4GaRmsFSzOgZT72-15" edge="1">
          <mxGeometry relative="1" as="geometry">
            <Array as="points">
              <mxPoint x="985" y="555" />
              <mxPoint x="985" y="480" />
            </Array>
            <mxPoint x="975" y="480" as="targetPoint" />
          </mxGeometry>
        </mxCell>
        <mxCell id="O_qhy4GaRmsFSzOgZT72-15" value="data_emissao" style="ellipse;whiteSpace=wrap;html=1;align=center;fontSize=11;" parent="1" vertex="1">
          <mxGeometry x="1005" y="540" width="80" height="30" as="geometry" />
        </mxCell>
        <mxCell id="llSJjnjl1L-JjQLvqV3q-13" value="Nacionalidade" style="whiteSpace=wrap;html=1;align=center;" parent="1" vertex="1">
          <mxGeometry x="680" y="565" width="100" height="40" as="geometry" />
        </mxCell>
        <mxCell id="llSJjnjl1L-JjQLvqV3q-14" value="Cargo" style="whiteSpace=wrap;html=1;align=center;" parent="1" vertex="1">
          <mxGeometry x="740" y="400" width="100" height="40" as="geometry" />
        </mxCell>
        <mxCell id="llSJjnjl1L-JjQLvqV3q-55" value="" style="edgeStyle=orthogonalEdgeStyle;shape=connector;rounded=0;orthogonalLoop=1;jettySize=auto;html=1;strokeColor=default;align=center;verticalAlign=middle;fontFamily=Helvetica;fontSize=11;fontColor=default;labelBackgroundColor=default;endArrow=none;endFill=0;" parent="1" source="llSJjnjl1L-JjQLvqV3q-15" target="llSJjnjl1L-JjQLvqV3q-54" edge="1">
          <mxGeometry relative="1" as="geometry" />
        </mxCell>
        <mxCell id="llSJjnjl1L-JjQLvqV3q-15" value="Modelo" style="whiteSpace=wrap;html=1;align=center;" parent="1" vertex="1">
          <mxGeometry x="170" y="400" width="100" height="40" as="geometry" />
        </mxCell>
        <mxCell id="llSJjnjl1L-JjQLvqV3q-50" value="" style="edgeStyle=orthogonalEdgeStyle;shape=connector;rounded=0;orthogonalLoop=1;jettySize=auto;html=1;strokeColor=default;align=center;verticalAlign=middle;fontFamily=Helvetica;fontSize=11;fontColor=default;labelBackgroundColor=default;endArrow=none;endFill=0;" parent="1" source="llSJjnjl1L-JjQLvqV3q-16" target="llSJjnjl1L-JjQLvqV3q-15" edge="1">
          <mxGeometry relative="1" as="geometry">
            <Array as="points">
              <mxPoint x="280" y="380" />
              <mxPoint x="220" y="380" />
            </Array>
          </mxGeometry>
        </mxCell>
        <mxCell id="llSJjnjl1L-JjQLvqV3q-52" value="(1)" style="edgeLabel;html=1;align=center;verticalAlign=middle;resizable=0;points=[];fontFamily=Helvetica;fontSize=11;fontColor=default;labelBackgroundColor=default;" parent="llSJjnjl1L-JjQLvqV3q-50" vertex="1" connectable="0">
          <mxGeometry x="0.2067" y="-1" relative="1" as="geometry">
            <mxPoint x="14" y="1" as="offset" />
          </mxGeometry>
        </mxCell>
        <mxCell id="llSJjnjl1L-JjQLvqV3q-16" value="&lt;font style=&quot;font-size: 10px;&quot;&gt;possui&lt;/font&gt;" style="shape=rhombus;perimeter=rhombusPerimeter;whiteSpace=wrap;html=1;align=center;fontSize=10;" parent="1" vertex="1">
          <mxGeometry x="245" y="330" width="70" height="40" as="geometry" />
        </mxCell>
        <mxCell id="llSJjnjl1L-JjQLvqV3q-18" value="" style="edgeStyle=orthogonalEdgeStyle;shape=connector;rounded=0;orthogonalLoop=1;jettySize=auto;html=1;strokeColor=default;align=center;verticalAlign=middle;fontFamily=Helvetica;fontSize=11;fontColor=default;labelBackgroundColor=default;endArrow=none;endFill=0;" parent="1" source="llSJjnjl1L-JjQLvqV3q-17" target="VFVIMdCbOXR8x4Mu5Sau-15" edge="1">
          <mxGeometry relative="1" as="geometry" />
        </mxCell>
        <mxCell id="llSJjnjl1L-JjQLvqV3q-35" value="(N)" style="edgeLabel;html=1;align=center;verticalAlign=middle;resizable=0;points=[];fontFamily=Helvetica;fontSize=11;fontColor=default;labelBackgroundColor=default;" parent="llSJjnjl1L-JjQLvqV3q-18" vertex="1" connectable="0">
          <mxGeometry x="0.0752" y="1" relative="1" as="geometry">
            <mxPoint y="1" as="offset" />
          </mxGeometry>
        </mxCell>
        <mxCell id="llSJjnjl1L-JjQLvqV3q-19" value="" style="edgeStyle=orthogonalEdgeStyle;shape=connector;rounded=0;orthogonalLoop=1;jettySize=auto;html=1;strokeColor=default;align=center;verticalAlign=middle;fontFamily=Helvetica;fontSize=11;fontColor=default;labelBackgroundColor=default;endArrow=none;endFill=0;" parent="1" source="llSJjnjl1L-JjQLvqV3q-17" target="llSJjnjl1L-JjQLvqV3q-14" edge="1">
          <mxGeometry relative="1" as="geometry" />
        </mxCell>
        <mxCell id="llSJjnjl1L-JjQLvqV3q-36" value="(1)" style="edgeLabel;html=1;align=center;verticalAlign=middle;resizable=0;points=[];fontFamily=Helvetica;fontSize=11;fontColor=default;labelBackgroundColor=default;" parent="llSJjnjl1L-JjQLvqV3q-19" vertex="1" connectable="0">
          <mxGeometry x="0.0181" y="-1" relative="1" as="geometry">
            <mxPoint as="offset" />
          </mxGeometry>
        </mxCell>
        <mxCell id="llSJjnjl1L-JjQLvqV3q-17" value="ocupa" style="shape=rhombus;perimeter=rhombusPerimeter;whiteSpace=wrap;html=1;align=center;fontSize=10;" parent="1" vertex="1">
          <mxGeometry x="630" y="400" width="70" height="40" as="geometry" />
        </mxCell>
        <mxCell id="llSJjnjl1L-JjQLvqV3q-25" style="edgeStyle=orthogonalEdgeStyle;shape=connector;rounded=0;orthogonalLoop=1;jettySize=auto;html=1;exitX=0.5;exitY=1;exitDx=0;exitDy=0;entryX=0.5;entryY=0;entryDx=0;entryDy=0;strokeColor=default;align=center;verticalAlign=middle;fontFamily=Helvetica;fontSize=11;fontColor=default;labelBackgroundColor=default;endArrow=none;endFill=0;" parent="1" source="llSJjnjl1L-JjQLvqV3q-20" target="VFVIMdCbOXR8x4Mu5Sau-7" edge="1">
          <mxGeometry relative="1" as="geometry" />
        </mxCell>
        <mxCell id="llSJjnjl1L-JjQLvqV3q-34" value="(N)" style="edgeLabel;html=1;align=center;verticalAlign=middle;resizable=0;points=[];fontFamily=Helvetica;fontSize=11;fontColor=default;labelBackgroundColor=default;" parent="llSJjnjl1L-JjQLvqV3q-25" vertex="1" connectable="0">
          <mxGeometry x="-0.1524" relative="1" as="geometry">
            <mxPoint as="offset" />
          </mxGeometry>
        </mxCell>
        <mxCell id="llSJjnjl1L-JjQLvqV3q-29" style="edgeStyle=orthogonalEdgeStyle;shape=connector;rounded=0;orthogonalLoop=1;jettySize=auto;html=1;exitX=1;exitY=0.5;exitDx=0;exitDy=0;entryX=0;entryY=0.75;entryDx=0;entryDy=0;strokeColor=default;align=center;verticalAlign=middle;fontFamily=Helvetica;fontSize=11;fontColor=default;labelBackgroundColor=default;endArrow=none;endFill=0;" parent="1" source="llSJjnjl1L-JjQLvqV3q-20" target="llSJjnjl1L-JjQLvqV3q-13" edge="1">
          <mxGeometry relative="1" as="geometry">
            <Array as="points">
              <mxPoint x="680" y="590" />
            </Array>
          </mxGeometry>
        </mxCell>
        <mxCell id="llSJjnjl1L-JjQLvqV3q-33" value="(1)" style="edgeLabel;html=1;align=center;verticalAlign=middle;resizable=0;points=[];fontFamily=Helvetica;fontSize=11;fontColor=default;labelBackgroundColor=default;" parent="llSJjnjl1L-JjQLvqV3q-29" vertex="1" connectable="0">
          <mxGeometry x="0.1403" y="-2" relative="1" as="geometry">
            <mxPoint x="-12" y="-2" as="offset" />
          </mxGeometry>
        </mxCell>
        <mxCell id="llSJjnjl1L-JjQLvqV3q-20" value="possui" style="shape=rhombus;perimeter=rhombusPerimeter;whiteSpace=wrap;html=1;align=center;fontSize=9;" parent="1" vertex="1">
          <mxGeometry x="515" y="570" width="70" height="40" as="geometry" />
        </mxCell>
        <mxCell id="llSJjnjl1L-JjQLvqV3q-26" style="edgeStyle=orthogonalEdgeStyle;shape=connector;rounded=0;orthogonalLoop=1;jettySize=auto;html=1;exitX=0.5;exitY=0;exitDx=0;exitDy=0;entryX=0.75;entryY=1;entryDx=0;entryDy=0;strokeColor=default;align=center;verticalAlign=middle;fontFamily=Helvetica;fontSize=11;fontColor=default;labelBackgroundColor=default;endArrow=none;endFill=0;" parent="1" source="llSJjnjl1L-JjQLvqV3q-21" target="VFVIMdCbOXR8x4Mu5Sau-15" edge="1">
          <mxGeometry relative="1" as="geometry" />
        </mxCell>
        <mxCell id="llSJjnjl1L-JjQLvqV3q-27" value="(N)" style="edgeLabel;html=1;align=center;verticalAlign=middle;resizable=0;points=[];fontFamily=Helvetica;fontSize=11;fontColor=default;labelBackgroundColor=default;" parent="llSJjnjl1L-JjQLvqV3q-26" vertex="1" connectable="0">
          <mxGeometry x="-0.0323" y="-2" relative="1" as="geometry">
            <mxPoint x="-4" y="2" as="offset" />
          </mxGeometry>
        </mxCell>
        <mxCell id="llSJjnjl1L-JjQLvqV3q-31" style="edgeStyle=orthogonalEdgeStyle;shape=connector;rounded=0;orthogonalLoop=1;jettySize=auto;html=1;exitX=0.5;exitY=1;exitDx=0;exitDy=0;entryX=0;entryY=0.25;entryDx=0;entryDy=0;strokeColor=default;align=center;verticalAlign=middle;fontFamily=Helvetica;fontSize=11;fontColor=default;labelBackgroundColor=default;endArrow=none;endFill=0;" parent="1" source="llSJjnjl1L-JjQLvqV3q-21" target="llSJjnjl1L-JjQLvqV3q-13" edge="1">
          <mxGeometry relative="1" as="geometry">
            <Array as="points">
              <mxPoint x="600" y="580" />
              <mxPoint x="680" y="580" />
            </Array>
          </mxGeometry>
        </mxCell>
        <mxCell id="llSJjnjl1L-JjQLvqV3q-32" value="(1)" style="edgeLabel;html=1;align=center;verticalAlign=middle;resizable=0;points=[];fontFamily=Helvetica;fontSize=11;fontColor=default;labelBackgroundColor=default;" parent="llSJjnjl1L-JjQLvqV3q-31" vertex="1" connectable="0">
          <mxGeometry x="0.2753" y="2" relative="1" as="geometry">
            <mxPoint x="-40" y="-23" as="offset" />
          </mxGeometry>
        </mxCell>
        <mxCell id="llSJjnjl1L-JjQLvqV3q-21" value="possui" style="shape=rhombus;perimeter=rhombusPerimeter;whiteSpace=wrap;html=1;align=center;fontSize=9;" parent="1" vertex="1">
          <mxGeometry x="565" y="500" width="70" height="40" as="geometry" />
        </mxCell>
        <mxCell id="llSJjnjl1L-JjQLvqV3q-41" style="edgeStyle=orthogonalEdgeStyle;shape=connector;rounded=0;orthogonalLoop=1;jettySize=auto;html=1;exitX=0.5;exitY=0;exitDx=0;exitDy=0;entryX=0.5;entryY=1;entryDx=0;entryDy=0;strokeColor=default;align=center;verticalAlign=middle;fontFamily=Helvetica;fontSize=11;fontColor=default;labelBackgroundColor=default;endArrow=none;endFill=0;" parent="1" source="llSJjnjl1L-JjQLvqV3q-37" target="llSJjnjl1L-JjQLvqV3q-14" edge="1">
          <mxGeometry relative="1" as="geometry">
            <Array as="points">
              <mxPoint x="700" y="460" />
              <mxPoint x="790" y="460" />
            </Array>
          </mxGeometry>
        </mxCell>
        <mxCell id="llSJjnjl1L-JjQLvqV3q-37" value="nome_cargo" style="ellipse;whiteSpace=wrap;html=1;align=center;fontSize=11;" parent="1" vertex="1">
          <mxGeometry x="660" y="470" width="80" height="30" as="geometry" />
        </mxCell>
        <mxCell id="llSJjnjl1L-JjQLvqV3q-40" value="" style="edgeStyle=orthogonalEdgeStyle;shape=connector;rounded=0;orthogonalLoop=1;jettySize=auto;html=1;strokeColor=default;align=center;verticalAlign=middle;fontFamily=Helvetica;fontSize=11;fontColor=default;labelBackgroundColor=default;endArrow=none;endFill=0;" parent="1" source="llSJjnjl1L-JjQLvqV3q-39" target="llSJjnjl1L-JjQLvqV3q-14" edge="1">
          <mxGeometry relative="1" as="geometry" />
        </mxCell>
        <mxCell id="llSJjnjl1L-JjQLvqV3q-39" value="id" style="ellipse;whiteSpace=wrap;html=1;align=center;fontSize=11;fontStyle=4" parent="1" vertex="1">
          <mxGeometry x="750" y="470" width="80" height="30" as="geometry" />
        </mxCell>
        <mxCell id="llSJjnjl1L-JjQLvqV3q-46" value="" style="edgeStyle=orthogonalEdgeStyle;shape=connector;rounded=0;orthogonalLoop=1;jettySize=auto;html=1;strokeColor=default;align=center;verticalAlign=middle;fontFamily=Helvetica;fontSize=11;fontColor=default;labelBackgroundColor=default;endArrow=none;endFill=0;" parent="1" source="llSJjnjl1L-JjQLvqV3q-42" target="llSJjnjl1L-JjQLvqV3q-13" edge="1">
          <mxGeometry relative="1" as="geometry" />
        </mxCell>
        <mxCell id="llSJjnjl1L-JjQLvqV3q-42" value="id" style="ellipse;whiteSpace=wrap;html=1;align=center;fontSize=11;fontStyle=4" parent="1" vertex="1">
          <mxGeometry x="810" y="570" width="80" height="30" as="geometry" />
        </mxCell>
        <mxCell id="llSJjnjl1L-JjQLvqV3q-47" style="edgeStyle=orthogonalEdgeStyle;shape=connector;rounded=0;orthogonalLoop=1;jettySize=auto;html=1;exitX=0;exitY=0.5;exitDx=0;exitDy=0;entryX=1;entryY=0.5;entryDx=0;entryDy=0;strokeColor=default;align=center;verticalAlign=middle;fontFamily=Helvetica;fontSize=11;fontColor=default;labelBackgroundColor=default;endArrow=none;endFill=0;" parent="1" source="llSJjnjl1L-JjQLvqV3q-43" target="llSJjnjl1L-JjQLvqV3q-13" edge="1">
          <mxGeometry relative="1" as="geometry">
            <Array as="points">
              <mxPoint x="800" y="620" />
              <mxPoint x="800" y="585" />
            </Array>
          </mxGeometry>
        </mxCell>
        <mxCell id="llSJjnjl1L-JjQLvqV3q-43" value="nome_cargo" style="ellipse;whiteSpace=wrap;html=1;align=center;fontSize=11;" parent="1" vertex="1">
          <mxGeometry x="810" y="605" width="80" height="30" as="geometry" />
        </mxCell>
        <mxCell id="llSJjnjl1L-JjQLvqV3q-56" value="" style="edgeStyle=orthogonalEdgeStyle;shape=connector;rounded=0;orthogonalLoop=1;jettySize=auto;html=1;strokeColor=default;align=center;verticalAlign=middle;fontFamily=Helvetica;fontSize=11;fontColor=default;labelBackgroundColor=default;endArrow=none;endFill=0;" parent="1" source="llSJjnjl1L-JjQLvqV3q-53" target="llSJjnjl1L-JjQLvqV3q-15" edge="1">
          <mxGeometry relative="1" as="geometry" />
        </mxCell>
        <mxCell id="llSJjnjl1L-JjQLvqV3q-53" value="id" style="ellipse;whiteSpace=wrap;html=1;align=center;fontStyle=4;fontSize=11;" parent="1" vertex="1">
          <mxGeometry x="295" y="405" width="80" height="30" as="geometry" />
        </mxCell>
        <mxCell id="llSJjnjl1L-JjQLvqV3q-54" value="nome_modelo" style="ellipse;whiteSpace=wrap;html=1;align=center;fontSize=11;" parent="1" vertex="1">
          <mxGeometry x="295" y="440" width="80" height="30" as="geometry" />
        </mxCell>
        <mxCell id="llSJjnjl1L-JjQLvqV3q-60" style="edgeStyle=orthogonalEdgeStyle;shape=connector;rounded=0;orthogonalLoop=1;jettySize=auto;html=1;exitX=0;exitY=0.5;exitDx=0;exitDy=0;strokeColor=default;align=center;verticalAlign=middle;fontFamily=Helvetica;fontSize=11;fontColor=default;labelBackgroundColor=default;endArrow=none;endFill=0;" parent="1" source="llSJjnjl1L-JjQLvqV3q-57" edge="1">
          <mxGeometry relative="1" as="geometry">
            <mxPoint x="290.0000000000002" y="494.94366197183103" as="targetPoint" />
          </mxGeometry>
        </mxCell>
        <mxCell id="llSJjnjl1L-JjQLvqV3q-57" value="pesomax_kg" style="ellipse;whiteSpace=wrap;html=1;align=center;fontSize=11;" parent="1" vertex="1">
          <mxGeometry x="295" y="480" width="80" height="30" as="geometry" />
        </mxCell>
        <mxCell id="llSJjnjl1L-JjQLvqV3q-59" style="edgeStyle=orthogonalEdgeStyle;shape=connector;rounded=0;orthogonalLoop=1;jettySize=auto;html=1;exitX=0;exitY=0.5;exitDx=0;exitDy=0;strokeColor=default;align=center;verticalAlign=middle;fontFamily=Helvetica;fontSize=11;fontColor=default;labelBackgroundColor=default;endArrow=none;endFill=0;" parent="1" source="llSJjnjl1L-JjQLvqV3q-58" edge="1">
          <mxGeometry relative="1" as="geometry">
            <mxPoint x="270" y="420" as="targetPoint" />
            <Array as="points">
              <mxPoint x="290" y="535" />
            </Array>
          </mxGeometry>
        </mxCell>
        <mxCell id="llSJjnjl1L-JjQLvqV3q-58" value="capacidade" style="ellipse;whiteSpace=wrap;html=1;align=center;fontSize=11;" parent="1" vertex="1">
          <mxGeometry x="295" y="520" width="80" height="30" as="geometry" />
        </mxCell>
      </root>
    </mxGraphModel>
  </diagram>
</mxfile>
